ScienceGothic-LtCndCtr.ufo
<glyph name="asterisk" format="2">
  <advance width="465"/>
  <unicode hex="002A"/>
  <outline>
    <contour>
      <point x="215" y="1120" type="line"/>
      <point x="249" y="1120" type="line"/>
      <point x="249" y="1256" type="line"/>
      <point x="364" y="1185" type="line"/>
      <point x="380" y="1211" type="line"/>
      <point x="261" y="1284" type="line"/>
      <point x="379" y="1358" type="line"/>
      <point x="363" y="1384" type="line"/>
      <point x="249" y="1312" type="line"/>
      <point x="249" y="1448" type="line"/>
      <point x="215" y="1448" type="line"/>
      <point x="215" y="1313" type="line"/>
      <point x="101" y="1384" type="line"/>
      <point x="85" y="1358" type="line"/>
      <point x="204" y="1284" type="line"/>
      <point x="85" y="1210" type="line"/>
      <point x="101" y="1184" type="line"/>
      <point x="215" y="1255" type="line"/>
    </contour>
  </outline>
</glyph>
<glyph name="b" format="2">
  <advance width="493"/>
  <unicode hex="0062"/>
  <anchor x="252" y="1598" name="top"/>
  <anchor x="252" y="-150" name="bottom"/>
  <outline>
    <contour>
      <point x="85" y="0" type="line"/>
      <point x="121" y="0" type="line"/>
      <point x="121" y="12" type="line"/>
      <point x="127.037" y="3.6994"/>
      <point x="154.589" y="-4"/>
      <point x="181" y="-4" type="qcurve" smooth="yes"/>
      <point x="280" y="-4" type="line" smooth="yes"/>
      <point x="356.215" y="-4"/>
      <point x="425" y="64.0308"/>
      <point x="425" y="141" type="qcurve" smooth="yes"/>
      <point x="425" y="859" type="line" smooth="yes"/>
      <point x="425" y="936.724"/>
      <point x="356.969" y="1004"/>
      <point x="280" y="1004" type="qcurve" smooth="yes"/>
      <point x="183" y="1004" type="line" smooth="yes"/>
      <point x="156.589" y="1004"/>
      <point x="129.301" y="996.301"/>
      <point x="121" y="988" type="qcurve"/>
      <point x="121" y="1448" type="line"/>
      <point x="85" y="1448" type="line"/>
    </contour>
    <contour>
      <point x="121" y="28" type="line"/>
      <point x="121" y="972" type="line"/>
      <point x="273" y="972" type="line" smooth="yes"/>
      <point x="338.65" y="972"/>
      <point x="389" y="913.35"/>
      <point x="389" y="856" type="qcurve" smooth="yes"/>
      <point x="389" y="144" type="line" smooth="yes"/>
      <point x="389" y="86.6504"/>
      <point x="338.65" y="28"/>
      <point x="273" y="28" type="qcurve" smooth="yes"/>
    </contour>
  </outline>
  <guideline angle="0" x="0" y="988"/>
  <guideline angle="0" x="0" y="42"/>
</glyph>
<glyph name="j" format="2">
  <advance width="206"/>
  <unicode hex="006A"/>
  <anchor x="122" y="1150" name="top"/>
  <outline>
    <contour>
      <point x="-50" y="-396" type="line"/>
      <point x="-40" y="-428" type="line"/>
      <point x="-3" y="-428" type="line" smooth="yes"/>
      <point x="37.125" y="-428"/>
      <point x="92.4688" y="-409.969"/>
      <point x="126.781" y="-373.781"/>
      <point x="142" y="-319.375"/>
      <point x="142" y="-283" type="qcurve" smooth="yes"/>
      <point x="142" y="1000" type="line"/>
      <point x="106" y="1000" type="line"/>
      <point x="106" y="-280" type="line" smooth="yes"/>
      <point x="106" y="-344.141"/>
      <point x="53.595" y="-396"/>
      <point x="-3" y="-396" type="qcurve" smooth="yes"/>
    </contour>
    <contour>
      <point x="84" y="1260" type="line" smooth="yes"/>
      <point x="84" y="1241.89"/>
      <point x="89.8896" y="1236"/>
      <point x="108" y="1236" type="qcurve" smooth="yes"/>
      <point x="136" y="1236" type="line" smooth="yes"/>
      <point x="154.11" y="1236"/>
      <point x="160" y="1241.89"/>
      <point x="160" y="1260" type="qcurve" smooth="yes"/>
      <point x="160" y="1288" type="line" smooth="yes"/>
      <point x="160" y="1306.11"/>
      <point x="154.11" y="1312"/>
      <point x="136" y="1312" type="qcurve" smooth="yes"/>
      <point x="108" y="1312" type="line" smooth="yes"/>
      <point x="89.8896" y="1312"/>
      <point x="84" y="1306.11"/>
      <point x="84" y="1288" type="qcurve" smooth="yes"/>
    </contour>
  </outline>
</glyph>
<glyph name="k" format="2">
  <advance width="461"/>
  <unicode hex="006B"/>
  <anchor x="186" y="1598" name="top"/>
  <anchor x="260" y="-150" name="bottom"/>
  <anchor x="-15" y="724" name="left"/>
  <outline>
    <contour>
      <point x="85" y="0" type="line"/>
      <point x="121" y="0" type="line"/>
      <point x="121" y="498" type="line"/>
      <point x="114" y="498" type="line"/>
      <point x="417" y="0" type="line"/>
      <point x="461" y="0" type="line"/>
      <point x="141" y="523" type="line"/>
      <point x="141" y="502" type="line"/>
      <point x="419" y="1000" type="line"/>
      <point x="381" y="1000" type="line"/>
      <point x="113" y="522" type="line"/>
      <point x="121" y="522" type="line"/>
      <point x="121" y="1448" type="line"/>
      <point x="85" y="1448" type="line"/>
    </contour>
  </outline>
</glyph>
<glyph name="plusminus" format="2">
  <advance width="608"/>
  <unicode hex="00B1"/>
  <outline>
    <contour>
      <point x="547" y="605" type="line"/>
      <point x="324" y="605" type="line"/>
      <point x="324" y="877" type="line"/>
      <point x="284" y="877" type="line"/>
      <point x="284" y="605" type="line"/>
      <point x="61" y="605" type="line"/>
      <point x="61" y="569" type="line"/>
      <point x="284" y="569" type="line"/>
      <point x="284" y="291" type="line"/>
      <point x="324" y="291" type="line"/>
      <point x="324" y="569" type="line"/>
      <point x="547" y="569" type="line"/>
    </contour>
    <contour>
      <point x="61" y="0" type="line"/>
      <point x="547" y="0" type="line"/>
      <point x="547" y="36" type="line"/>
      <point x="61" y="36" type="line"/>
    </contour>
  </outline>
</glyph>
<glyph name="onequarter" format="2">
  <advance width="714"/>
  <unicode hex="00BC"/>
  <outline>
    <contour>
      <point x="149" y="614" type="line"/>
      <point x="183" y="614" type="line"/>
      <point x="183" y="1403" type="line"/>
      <point x="79" y="1380" type="line"/>
      <point x="79" y="1352" type="line"/>
      <point x="149" y="1363" type="line"/>
    </contour>
    <contour>
      <point x="626" y="1400" type="line"/>
      <point x="22" y="0" type="line"/>
      <point x="55" y="0" type="line"/>
      <point x="659" y="1400" type="line"/>
    </contour>
    <contour>
      <point x="405" y="177" type="line"/>
      <point x="586" y="177" type="line"/>
      <point x="586" y="0" type="line"/>
      <point x="620" y="0" type="line"/>
      <point x="620" y="177" type="line"/>
      <point x="666" y="177" type="line"/>
      <point x="666" y="207" type="line"/>
      <point x="620" y="207" type="line"/>
      <point x="620" y="784" type="line"/>
      <point x="583" y="784" type="line"/>
      <point x="405" y="202" type="line"/>
    </contour>
    <contour>
      <point x="438" y="207" type="line"/>
      <point x="586" y="694" type="line"/>
      <point x="586" y="207" type="line"/>
    </contour>
  </outline>
  <guideline angle="90" color="0.4,0.4,0.4,1" name="halfwidth" x="357" y="0"/>
</glyph>
<glyph name="multiply" format="2">
  <advance width="608"/>
  <unicode hex="00D7"/>
  <outline>
    <contour>
      <point x="125" y="297" type="line"/>
      <point x="304" y="555" type="line"/>
      <point x="483" y="297" type="line"/>
      <point x="514" y="319" type="line"/>
      <point x="327" y="588" type="line"/>
      <point x="514" y="856" type="line"/>
      <point x="483" y="878" type="line"/>
      <point x="305" y="621" type="line"/>
      <point x="126" y="878" type="line"/>
      <point x="95" y="856" type="line"/>
      <point x="282" y="587" type="line"/>
      <point x="95" y="318" type="line"/>
    </contour>
  </outline>
  <guideline angle="34.3869" color="1,0,0,1" x="243" y="140"/>
  <guideline angle="325.644" color="1,0,0,1" x="222" y="1003"/>
</glyph>
<glyph name="aring" format="2">
  <advance width="471"/>
  <unicode hex="00E5"/>
  <anchor x="229" y="1495" name="top"/>
  <anchor x="229" y="-150" name="bottom"/>
  <anchor x="394" y="0" name="ogonek"/>
  <outline>
    <contour>
      <point x="207" y="-4" type="qcurve" smooth="yes"/>
      <point x="312" y="-4" type="line" smooth="yes"/>
      <point x="328.601" y="-4"/>
      <point x="350.454" y="8.4172"/>
      <point x="358" y="22" type="qcurve"/>
      <point x="358" y="0" type="line"/>
      <point x="394" y="0" type="line"/>
      <point x="394" y="859" type="line" smooth="yes"/>
      <point x="394" y="932.196"/>
      <point x="329.742" y="1004"/>
      <point x="249" y="1004" type="qcurve" smooth="yes"/>
      <point x="219" y="1004" type="line" smooth="yes"/>
      <point x="138.258" y="1004"/>
      <point x="74" y="932.196"/>
      <point x="74" y="859" type="qcurve" smooth="yes"/>
      <point x="74" y="750" type="line"/>
      <point x="110" y="742" type="line"/>
      <point x="110" y="856" type="line" smooth="yes"/>
      <point x="110" y="920.141"/>
      <point x="162.405" y="972"/>
      <point x="219" y="972" type="qcurve" smooth="yes"/>
      <point x="249" y="972" type="line" smooth="yes"/>
      <point x="305.595" y="972"/>
      <point x="358" y="920.141"/>
      <point x="358" y="856" type="qcurve" smooth="yes"/>
      <point x="358" y="592" type="line"/>
      <point x="207" y="592" type="line" smooth="yes"/>
      <point x="126.75" y="592"/>
      <point x="62" y="519.75"/>
      <point x="62" y="447" type="qcurve" smooth="yes"/>
      <point x="62" y="141" type="line" smooth="yes"/>
      <point x="62" y="67.8038"/>
      <point x="126.258" y="-4"/>
    </contour>
    <contour>
      <point x="98" y="144" type="qcurve" smooth="yes"/>
      <point x="98" y="444" type="line" smooth="yes"/>
      <point x="98" y="508.141"/>
      <point x="150.405" y="560"/>
      <point x="207" y="560" type="qcurve" smooth="yes"/>
      <point x="358" y="560" type="line"/>
      <point x="358" y="28" type="line"/>
      <point x="207" y="28" type="line" smooth="yes"/>
      <point x="142.859" y="28"/>
      <point x="98" y="87.405"/>
    </contour>
    <contour>
      <point x="229" y="1131" type="qcurve" smooth="yes"/>
      <point x="265.75" y="1131"/>
      <point x="313.375" y="1138.03"/>
      <point x="341.125" y="1162.22"/>
      <point x="352" y="1208.62"/>
      <point x="352" y="1248" type="qcurve" smooth="yes"/>
      <point x="352" y="1287.38"/>
      <point x="341.125" y="1333.78"/>
      <point x="313.375" y="1357.97"/>
      <point x="265.75" y="1365"/>
      <point x="229" y="1365" type="qcurve" smooth="yes"/>
      <point x="192.25" y="1365"/>
      <point x="144.625" y="1357.97"/>
      <point x="116.875" y="1333.78"/>
      <point x="106" y="1287.38"/>
      <point x="106" y="1248" type="qcurve" smooth="yes"/>
      <point x="106" y="1208.62"/>
      <point x="116.875" y="1162.22"/>
      <point x="144.625" y="1138.03"/>
      <point x="192.25" y="1131"/>
    </contour>
    <contour>
      <point x="229" y="1159" type="qcurve" smooth="yes"/>
      <point x="173.914" y="1159"/>
      <point x="138" y="1189.14"/>
      <point x="138" y="1248" type="qcurve" smooth="yes"/>
      <point x="138" y="1306.86"/>
      <point x="173.914" y="1337"/>
      <point x="229" y="1337" type="qcurve" smooth="yes"/>
      <point x="284.086" y="1337"/>
      <point x="320" y="1306.86"/>
      <point x="320" y="1248" type="qcurve" smooth="yes"/>
      <point x="320" y="1189.14"/>
      <point x="284.086" y="1159"/>
    </contour>
  </outline>
  <guideline angle="90" color="1,0,0,1" x="358" y="0"/>
</glyph>
<glyph name="icircumflex" format="2">
  <advance width="206"/>
  <unicode hex="00EE"/>
  <anchor x="104" y="-150" name="bottom"/>
  <anchor x="104" y="1490" name="top"/>
  <anchor x="121" y="0" name="ogonek"/>
  <anchor x="233" y="1243" name="topright"/>
  <outline>
    <contour>
      <point x="85" y="0" type="line"/>
      <point x="121" y="0" type="line"/>
      <point x="121" y="1000" type="line"/>
      <point x="85" y="1000" type="line"/>
    </contour>
    <contour>
      <point x="-25" y="1095" type="line"/>
      <point x="7" y="1095" type="line"/>
      <point x="104" y="1350" type="line"/>
      <point x="200" y="1095" type="line"/>
      <point x="233" y="1095" type="line"/>
      <point x="119" y="1390" type="line"/>
      <point x="90" y="1390" type="line"/>
    </contour>
  </outline>
</glyph>
<glyph name="Cdotaccent" format="2">
  <advance width="566"/>
  <unicode hex="010A"/>
  <anchor x="297" y="1755" name="top"/>
  <anchor x="297" y="-154" name="bottom"/>
  <outline>
    <contour>
      <point x="81" y="1208" type="qcurve" smooth="yes"/>
      <point x="81" y="192" type="line" smooth="yes"/>
      <point x="81" y="84.8468"/>
      <point x="173.847" y="-8"/>
      <point x="281" y="-8" type="qcurve" smooth="yes"/>
      <point x="313" y="-8" type="line" smooth="yes"/>
      <point x="420.153" y="-8"/>
      <point x="513" y="84.8468"/>
      <point x="513" y="192" type="qcurve" smooth="yes"/>
      <point x="513" y="512" type="line"/>
      <point x="473" y="520" type="line"/>
      <point x="473" y="190" type="line" smooth="yes"/>
      <point x="473" y="100.203"/>
      <point x="402.307" y="28"/>
      <point x="311" y="28" type="qcurve" smooth="yes"/>
      <point x="283" y="28" type="line" smooth="yes"/>
      <point x="191.693" y="28"/>
      <point x="121" y="100.203"/>
      <point x="121" y="190" type="qcurve" smooth="yes"/>
      <point x="121" y="1210" type="line" smooth="yes"/>
      <point x="121" y="1299.8"/>
      <point x="191.693" y="1372"/>
      <point x="283" y="1372" type="qcurve" smooth="yes"/>
      <point x="311" y="1372" type="line" smooth="yes"/>
      <point x="402.307" y="1372"/>
      <point x="473" y="1299.8"/>
      <point x="473" y="1210" type="qcurve" smooth="yes"/>
      <point x="473" y="906" type="line"/>
      <point x="513" y="914" type="line"/>
      <point x="513" y="1208" type="line" smooth="yes"/>
      <point x="513" y="1314.5"/>
      <point x="419.5" y="1408"/>
      <point x="313" y="1408" type="qcurve" smooth="yes"/>
      <point x="281" y="1408" type="line" smooth="yes"/>
      <point x="174.5" y="1408"/>
      <point x="81" y="1314.5"/>
    </contour>
    <contour>
      <point x="281" y="1539" type="qcurve" smooth="yes"/>
      <point x="313" y="1539" type="line" smooth="yes"/>
      <point x="331.11" y="1539"/>
      <point x="337" y="1544.89"/>
      <point x="337" y="1563" type="qcurve" smooth="yes"/>
      <point x="337" y="1595" type="line" smooth="yes"/>
      <point x="337" y="1613.11"/>
      <point x="331.11" y="1619"/>
      <point x="313" y="1619" type="qcurve" smooth="yes"/>
      <point x="281" y="1619" type="line" smooth="yes"/>
      <point x="262.89" y="1619"/>
      <point x="257" y="1613.11"/>
      <point x="257" y="1595" type="qcurve" smooth="yes"/>
      <point x="257" y="1563" type="line" smooth="yes"/>
      <point x="257" y="1544.89"/>
      <point x="262.89" y="1539"/>
    </contour>
  </outline>
</glyph>
<glyph name="gdotaccent" format="2">
  <advance width="485"/>
  <unicode hex="0121"/>
  <anchor x="255" y="1351" name="top"/>
  <anchor x="255" y="-578" name="bottom"/>
  <outline>
    <contour>
      <point x="104" y="144" type="qcurve" smooth="yes"/>
      <point x="104" y="856" type="line" smooth="yes"/>
      <point x="104" y="912.595"/>
      <point x="148.859" y="972"/>
      <point x="213" y="972" type="qcurve" smooth="yes"/>
      <point x="372" y="972" type="line"/>
      <point x="372" y="28" type="line"/>
      <point x="213" y="28" type="line" smooth="yes"/>
      <point x="148.859" y="28"/>
      <point x="104" y="87.405"/>
    </contour>
    <contour>
      <point x="98" y="-428" type="line"/>
      <point x="263" y="-428" type="line" smooth="yes"/>
      <point x="299.375" y="-428"/>
      <point x="353.781" y="-412.781"/>
      <point x="389.969" y="-378.469"/>
      <point x="408" y="-323.125"/>
      <point x="408" y="-283" type="qcurve" smooth="yes"/>
      <point x="408" y="1000" type="line"/>
      <point x="372" y="1000" type="line"/>
      <point x="372" y="988" type="line"/>
      <point x="364.454" y="995.546"/>
      <point x="335.656" y="1004"/>
      <point x="310" y="1004" type="qcurve" smooth="yes"/>
      <point x="213" y="1004" type="line" smooth="yes"/>
      <point x="139.804" y="1004"/>
      <point x="68" y="939.742"/>
      <point x="68" y="859" type="qcurve" smooth="yes"/>
      <point x="68" y="141" type="line" smooth="yes"/>
      <point x="68" y="60.2578"/>
      <point x="139.804" y="-4"/>
      <point x="213" y="-4" type="qcurve" smooth="yes"/>
      <point x="312" y="-4" type="line" smooth="yes"/>
      <point x="337.656" y="-4"/>
      <point x="365.963" y="4.454"/>
      <point x="372" y="12" type="qcurve"/>
      <point x="372" y="-280" type="line" smooth="yes"/>
      <point x="372" y="-336.595"/>
      <point x="321.859" y="-396"/>
      <point x="263" y="-396" type="qcurve" smooth="yes"/>
      <point x="88" y="-396" type="line"/>
    </contour>
    <contour>
      <point x="239" y="1135" type="qcurve" smooth="yes"/>
      <point x="271" y="1135" type="line" smooth="yes"/>
      <point x="289.11" y="1135"/>
      <point x="295" y="1140.89"/>
      <point x="295" y="1159" type="qcurve" smooth="yes"/>
      <point x="295" y="1191" type="line" smooth="yes"/>
      <point x="295" y="1209.11"/>
      <point x="289.11" y="1215"/>
      <point x="271" y="1215" type="qcurve" smooth="yes"/>
      <point x="239" y="1215" type="line" smooth="yes"/>
      <point x="220.89" y="1215"/>
      <point x="215" y="1209.11"/>
      <point x="215" y="1191" type="qcurve" smooth="yes"/>
      <point x="215" y="1159" type="line" smooth="yes"/>
      <point x="215" y="1140.89"/>
      <point x="220.89" y="1135"/>
    </contour>
  </outline>
</glyph>
<glyph name="imacron" format="2">
  <advance width="206"/>
  <unicode hex="012B"/>
  <anchor x="104" y="-150" name="bottom"/>
  <anchor x="104" y="1226" name="top"/>
  <anchor x="121" y="0" name="ogonek"/>
  <outline>
    <contour>
      <point x="85" y="0" type="line"/>
      <point x="121" y="0" type="line"/>
      <point x="121" y="1000" type="line"/>
      <point x="85" y="1000" type="line"/>
    </contour>
    <contour>
      <point x="-16" y="1094" type="line"/>
      <point x="224" y="1094" type="line"/>
      <point x="224" y="1126" type="line"/>
      <point x="-16" y="1126" type="line"/>
    </contour>
  </outline>
</glyph>
<glyph name="Lcaron" format="2">
  <advance width="498"/>
  <unicode hex="013D"/>
  <anchor x="115" y="1550" name="top"/>
  <anchor x="293" y="-150" name="bottom"/>
  <anchor x="-5" y="700" name="left"/>
  <anchor x="185" y="1400" name="right"/>
  <anchor x="364" y="700" name="eldot"/>
  <outline>
    <contour>
      <point x="95" y="0" type="line"/>
      <point x="493" y="0" type="line"/>
      <point x="493" y="36" type="line"/>
      <point x="135" y="36" type="line"/>
      <point x="135" y="1400" type="line"/>
      <point x="95" y="1400" type="line"/>
    </contour>
    <contour>
      <point x="277" y="1065" type="line"/>
      <point x="307" y="1072" type="line"/>
      <point x="340" y="1400" type="line"/>
      <point x="307" y="1400" type="line"/>
    </contour>
  </outline>
</glyph>
<glyph name="ldot" format="2">
  <advance width="206"/>
  <unicode hex="0140"/>
  <anchor x="105" y="1598" name="top"/>
  <anchor x="105" y="-150" name="bottom"/>
  <anchor x="121" y="1448" name="right"/>
  <anchor x="206" y="700" name="eldot"/>
  <outline>
    <contour>
      <point x="85" y="0" type="line"/>
      <point x="121" y="0" type="line"/>
      <point x="121" y="1448" type="line"/>
      <point x="85" y="1448" type="line"/>
    </contour>
    <contour>
      <point x="176" y="694" type="line" smooth="yes"/>
      <point x="176" y="675.89"/>
      <point x="181.89" y="670"/>
      <point x="200" y="670" type="qcurve" smooth="yes"/>
      <point x="212" y="670" type="line" smooth="yes"/>
      <point x="230.11" y="670"/>
      <point x="236" y="675.89"/>
      <point x="236" y="694" type="qcurve" smooth="yes"/>
      <point x="236" y="705" type="line" smooth="yes"/>
      <point x="236" y="723.11"/>
      <point x="230.11" y="729"/>
      <point x="212" y="729" type="qcurve" smooth="yes"/>
      <point x="200" y="729" type="line" smooth="yes"/>
      <point x="181.89" y="729"/>
      <point x="176" y="723.11"/>
      <point x="176" y="705" type="qcurve" smooth="yes"/>
    </contour>
  </outline>
</glyph>
<glyph name="Lslash" format="2">
  <advance width="498"/>
  <unicode hex="0141"/>
  <outline>
    <contour>
      <point x="95" y="0" type="line"/>
      <point x="493" y="0" type="line"/>
      <point x="493" y="36" type="line"/>
      <point x="135" y="36" type="line"/>
      <point x="135" y="609" type="line"/>
      <point x="344" y="685" type="line"/>
      <point x="344" y="723" type="line"/>
      <point x="135" y="647" type="line"/>
      <point x="135" y="1400" type="line"/>
      <point x="95" y="1400" type="line"/>
      <point x="95" y="633" type="line"/>
      <point x="23" y="607" type="line"/>
      <point x="23" y="569" type="line"/>
      <point x="95" y="595" type="line"/>
    </contour>
  </outline>
</glyph>
<glyph name="uni0163" format="2">
  <advance width="346"/>
  <unicode hex="0163"/>
  <anchor x="185" y="1394" name="top"/>
  <anchor x="185" y="-154" name="bottom"/>
  <anchor x="160" y="1400" name="right"/>
  <outline>
    <contour>
      <point x="269" y="-4" type="qcurve" smooth="yes"/>
      <point x="276" y="-4" type="line"/>
      <point x="286" y="28" type="line"/>
      <point x="269" y="28" type="line" smooth="yes"/>
      <point x="211.65" y="28"/>
      <point x="160" y="79.1044"/>
      <point x="160" y="144" type="qcurve" smooth="yes"/>
      <point x="160" y="968" type="line"/>
      <point x="316" y="968" type="line"/>
      <point x="316" y="1000" type="line"/>
      <point x="160" y="1000" type="line"/>
      <point x="160" y="1244" type="line"/>
      <point x="124" y="1244" type="line"/>
      <point x="124" y="1000" type="line"/>
      <point x="34" y="1000" type="line"/>
      <point x="34" y="968" type="line"/>
      <point x="124" y="968" type="line"/>
      <point x="124" y="141" type="line" smooth="yes"/>
      <point x="124" y="67.8038"/>
      <point x="188.258" y="-4"/>
    </contour>
    <contour>
      <point x="174" y="-388" type="qcurve" smooth="yes"/>
      <point x="205.125" y="-388"/>
      <point x="254.156" y="-366.375"/>
      <point x="288.094" y="-328.125"/>
      <point x="306" y="-275.75"/>
      <point x="306" y="-245" type="qcurve" smooth="yes"/>
      <point x="306" y="-211.625"/>
      <point x="288.938" y="-160.781"/>
      <point x="255.562" y="-126.469"/>
      <point x="206.25" y="-109"/>
      <point x="174" y="-109" type="qcurve"/>
      <point x="201" y="-4" type="line"/>
      <point x="168" y="-4" type="line"/>
      <point x="125" y="-142" type="line"/>
      <point x="140.092" y="-140.491"/>
      <point x="162.681" y="-139"/>
      <point x="174" y="-139" type="qcurve" smooth="yes"/>
      <point x="233.613" y="-139"/>
      <point x="271" y="-197.442"/>
      <point x="271" y="-248" type="qcurve" smooth="yes"/>
      <point x="271" y="-303.84"/>
      <point x="211.73" y="-358"/>
      <point x="174" y="-358" type="qcurve" smooth="yes"/>
      <point x="125.706" y="-358"/>
      <point x="76.1288" y="-341.583"/>
      <point x="55" y="-328" type="qcurve"/>
      <point x="36" y="-350" type="line"/>
      <point x="66.184" y="-370.374"/>
      <point x="126.46" y="-388"/>
    </contour>
  </outline>
</glyph>
<glyph name="Uhungarumlaut" format="2">
  <advance width="590"/>
  <unicode hex="0170"/>
  <anchor x="295" y="1550" name="top"/>
  <anchor x="295" y="-150" name="bottom"/>
  <anchor x="315" y="0" name="ogonek"/>
  <anchor x="502" y="1400" name="horn"/>
  <anchor x="345" y="1485" name="topright"/>
  <outline>
    <contour>
      <point x="88" y="1400" type="line"/>
      <point x="88" y="192" type="line" smooth="yes"/>
      <point x="88" y="138.75"/>
      <point x="110.562" y="62.9375"/>
      <point x="158.938" y="14.5625"/>
      <point x="234.75" y="-8"/>
      <point x="288" y="-8" type="qcurve" smooth="yes"/>
      <point x="302" y="-8" type="line" smooth="yes"/>
      <point x="408.5" y="-8"/>
      <point x="502" y="85.5"/>
      <point x="502" y="192" type="qcurve" smooth="yes"/>
      <point x="502" y="1400" type="line"/>
      <point x="462" y="1400" type="line"/>
      <point x="462" y="190" type="line" smooth="yes"/>
      <point x="462" y="98.6934"/>
      <point x="389.797" y="28"/>
      <point x="300" y="28" type="qcurve" smooth="yes"/>
      <point x="290" y="28" type="line" smooth="yes"/>
      <point x="200.203" y="28"/>
      <point x="128" y="98.6934"/>
      <point x="128" y="190" type="qcurve" smooth="yes"/>
      <point x="128" y="1400" type="line"/>
    </contour>
    <contour>
      <point x="123" y="1485" type="line"/>
      <point x="163" y="1485" type="line"/>
      <point x="379" y="1800" type="line"/>
      <point x="333" y="1800" type="line"/>
    </contour>
    <contour>
      <point x="305" y="1485" type="line"/>
      <point x="345" y="1485" type="line"/>
      <point x="561" y="1800" type="line"/>
      <point x="515" y="1800" type="line"/>
    </contour>
  </outline>
</glyph>
<glyph name="uogonek" format="2">
  <advance width="504"/>
  <unicode hex="0173"/>
  <anchor x="253" y="1150" name="top"/>
  <anchor x="253" y="-150" name="bottom"/>
  <anchor x="271" y="0" name="ogonek"/>
  <anchor x="429" y="1000" name="horn"/>
  <outline>
    <contour>
      <point x="76" y="145" type="line" smooth="yes"/>
      <point x="76" y="71.8038"/>
      <point x="140.258" y="0"/>
      <point x="221" y="0" type="qcurve" smooth="yes"/>
      <point x="283" y="0" type="line" smooth="yes"/>
      <point x="356.196" y="0"/>
      <point x="428" y="64.2578"/>
      <point x="428" y="145" type="qcurve" smooth="yes"/>
      <point x="428" y="1000" type="line"/>
      <point x="392" y="1000" type="line"/>
      <point x="392" y="148" type="line" smooth="yes"/>
      <point x="392" y="83.1044"/>
      <point x="340.35" y="32"/>
      <point x="283" y="32" type="qcurve" smooth="yes"/>
      <point x="221" y="32" type="line" smooth="yes"/>
      <point x="163.65" y="32"/>
      <point x="112" y="83.1044"/>
      <point x="112" y="148" type="qcurve" smooth="yes"/>
      <point x="112" y="1000" type="line"/>
      <point x="76" y="1000" type="line"/>
    </contour>
    <contour>
      <point x="203.492" y="-359" type="qcurve" smooth="yes"/>
      <point x="221.48" y="-359"/>
      <point x="252.89" y="-349.319"/>
      <point x="271" y="-338" type="qcurve"/>
      <point x="271" y="-308" type="line"/>
      <point x="255.153" y="-318.564"/>
      <point x="222.683" y="-329"/>
      <point x="206.333" y="-329" type="qcurve" smooth="yes"/>
      <point x="173.634" y="-329"/>
      <point x="140" y="-288.145"/>
      <point x="140" y="-248.618" type="qcurve" smooth="yes"/>
      <point x="140" y="-199.857"/>
      <point x="198.558" y="-86.779"/>
      <point x="271" y="0" type="qcurve"/>
      <point x="235" y="0" type="line"/>
      <point x="168.595" y="-80.7422"/>
      <point x="107" y="-204.031"/>
      <point x="107" y="-253.327" type="qcurve" smooth="yes"/>
      <point x="107" y="-301.375"/>
      <point x="159.603" y="-359"/>
    </contour>
  </outline>
</glyph>
<glyph name="zdotaccent" format="2">
  <advance width="417"/>
  <unicode hex="017C"/>
  <anchor x="209" y="1351" name="top"/>
  <anchor x="209" y="-150" name="bottom"/>
  <outline>
    <contour>
      <point x="34" y="0" type="line"/>
      <point x="383" y="0" type="line"/>
      <point x="383" y="32" type="line"/>
      <point x="62" y="32" type="line"/>
      <point x="70" y="21" type="line"/>
      <point x="377" y="976" type="line"/>
      <point x="377" y="1000" type="line"/>
      <point x="64" y="1000" type="line"/>
      <point x="64" y="968" type="line"/>
      <point x="349" y="968" type="line"/>
      <point x="341" y="979" type="line"/>
      <point x="34" y="24" type="line"/>
    </contour>
    <contour>
      <point x="193" y="1135" type="qcurve" smooth="yes"/>
      <point x="225" y="1135" type="line" smooth="yes"/>
      <point x="243.11" y="1135"/>
      <point x="249" y="1140.89"/>
      <point x="249" y="1159" type="qcurve" smooth="yes"/>
      <point x="249" y="1191" type="line" smooth="yes"/>
      <point x="249" y="1209.11"/>
      <point x="243.11" y="1215"/>
      <point x="225" y="1215" type="qcurve" smooth="yes"/>
      <point x="193" y="1215" type="line" smooth="yes"/>
      <point x="174.89" y="1215"/>
      <point x="169" y="1209.11"/>
      <point x="169" y="1191" type="qcurve" smooth="yes"/>
      <point x="169" y="1159" type="line" smooth="yes"/>
      <point x="169" y="1140.89"/>
      <point x="174.89" y="1135"/>
    </contour>
  </outline>
</glyph>
<glyph name="uni0186" format="2">
  <advance width="566"/>
  <unicode hex="0186"/>
  <anchor x="269" y="1554" name="top"/>
  <anchor x="269" y="-154" name="bottom"/>
  <outline>
    <contour>
      <point x="253" y="-8" type="qcurve" smooth="yes"/>
      <point x="285" y="-8" type="line" smooth="yes"/>
      <point x="383.098" y="-8"/>
      <point x="485" y="93.902"/>
      <point x="485" y="192" type="qcurve" smooth="yes"/>
      <point x="485" y="1208" type="line" smooth="yes"/>
      <point x="485" y="1306.1"/>
      <point x="383.098" y="1408"/>
      <point x="285" y="1408" type="qcurve" smooth="yes"/>
      <point x="253" y="1408" type="line" smooth="yes"/>
      <point x="154.902" y="1408"/>
      <point x="53" y="1306.1"/>
      <point x="53" y="1208" type="qcurve" smooth="yes"/>
      <point x="53" y="914" type="line"/>
      <point x="93" y="906" type="line"/>
      <point x="93" y="1210" type="line" smooth="yes"/>
      <point x="93" y="1289.23"/>
      <point x="175.767" y="1372"/>
      <point x="255" y="1372" type="qcurve" smooth="yes"/>
      <point x="283" y="1372" type="line" smooth="yes"/>
      <point x="362.233" y="1372"/>
      <point x="445" y="1289.23"/>
      <point x="445" y="1210" type="qcurve" smooth="yes"/>
      <point x="445" y="190" type="line" smooth="yes"/>
      <point x="445" y="110.767"/>
      <point x="362.233" y="28"/>
      <point x="283" y="28" type="qcurve" smooth="yes"/>
      <point x="255" y="28" type="line" smooth="yes"/>
      <point x="175.767" y="28"/>
      <point x="93" y="110.767"/>
      <point x="93" y="190" type="qcurve" smooth="yes"/>
      <point x="93" y="520" type="line"/>
      <point x="53" y="512" type="line"/>
      <point x="53" y="192" type="line" smooth="yes"/>
      <point x="53" y="93.902"/>
      <point x="154.902" y="-8"/>
    </contour>
  </outline>
</glyph>
<glyph name="uni01B3" format="2">
  <advance width="612"/>
  <unicode hex="01B3"/>
  <anchor x="267" y="1550" name="top"/>
  <anchor x="257" y="-150" name="bottom"/>
  <outline>
    <contour>
      <point x="237" y="0" type="line"/>
      <point x="277" y="0" type="line"/>
      <point x="277" y="634" type="line"/>
      <point x="471" y="1292" type="line" smooth="yes"/>
      <point x="480.81" y="1325.2"/>
      <point x="515.798" y="1368"/>
      <point x="549" y="1368" type="qcurve" smooth="yes"/>
      <point x="603" y="1368" type="line"/>
      <point x="612" y="1400" type="line"/>
      <point x="549" y="1400" type="line" smooth="yes"/>
      <point x="502.215" y="1400"/>
      <point x="448.583" y="1345.03"/>
      <point x="435" y="1299" type="qcurve" smooth="yes"/>
      <point x="259" y="694" type="line"/>
      <point x="42" y="1400" type="line"/>
      <point x="0" y="1400" type="line"/>
      <point x="237" y="634" type="line"/>
    </contour>
  </outline>
  <guideline angle="90" color="1,0,0,1" x="267" y="0"/>
  <guideline angle="90" color="1,0,0,1" x="267" y="0"/>
</glyph>
<glyph name="uni01C8" format="2">
  <advance width="704"/>
  <unicode hex="01C8"/>
  <anchor x="620" y="1150" name="top"/>
  <anchor x="293" y="-150" name="bottom"/>
  <anchor x="-5" y="700" name="left"/>
  <anchor x="185" y="1400" name="right"/>
  <anchor x="364" y="700" name="eldot"/>
  <outline>
    <contour>
      <point x="95" y="0" type="line"/>
      <point x="493" y="0" type="line"/>
      <point x="493" y="36" type="line"/>
      <point x="135" y="36" type="line"/>
      <point x="135" y="1400" type="line"/>
      <point x="95" y="1400" type="line"/>
    </contour>
    <contour>
      <point x="448" y="-396" type="line"/>
      <point x="458" y="-428" type="line"/>
      <point x="495" y="-428" type="line" smooth="yes"/>
      <point x="535.125" y="-428"/>
      <point x="590.469" y="-409.969"/>
      <point x="624.781" y="-373.781"/>
      <point x="640" y="-319.375"/>
      <point x="640" y="-283" type="qcurve" smooth="yes"/>
      <point x="640" y="1000" type="line"/>
      <point x="604" y="1000" type="line"/>
      <point x="604" y="-280" type="line" smooth="yes"/>
      <point x="604" y="-344.141"/>
      <point x="551.595" y="-396"/>
      <point x="495" y="-396" type="qcurve" smooth="yes"/>
    </contour>
    <contour>
      <point x="582" y="1260" type="line" smooth="yes"/>
      <point x="582" y="1241.89"/>
      <point x="587.89" y="1236"/>
      <point x="606" y="1236" type="qcurve" smooth="yes"/>
      <point x="634" y="1236" type="line" smooth="yes"/>
      <point x="652.11" y="1236"/>
      <point x="658" y="1241.89"/>
      <point x="658" y="1260" type="qcurve" smooth="yes"/>
      <point x="658" y="1288" type="line" smooth="yes"/>
      <point x="658" y="1306.11"/>
      <point x="652.11" y="1312"/>
      <point x="634" y="1312" type="qcurve" smooth="yes"/>
      <point x="606" y="1312" type="line" smooth="yes"/>
      <point x="587.89" y="1312"/>
      <point x="582" y="1306.11"/>
      <point x="582" y="1288" type="qcurve" smooth="yes"/>
    </contour>
  </outline>
</glyph>
<glyph name="uni01C9" format="2">
  <advance width="412"/>
  <unicode hex="01C9"/>
  <anchor x="328" y="1150" name="top"/>
  <anchor x="105" y="-150" name="bottom"/>
  <anchor x="121" y="1448" name="right"/>
  <anchor x="206" y="700" name="eldot"/>
  <outline>
    <contour>
      <point x="85" y="0" type="line"/>
      <point x="121" y="0" type="line"/>
      <point x="121" y="1448" type="line"/>
      <point x="85" y="1448" type="line"/>
    </contour>
    <contour>
      <point x="156" y="-396" type="line"/>
      <point x="166" y="-428" type="line"/>
      <point x="203" y="-428" type="line" smooth="yes"/>
      <point x="243.125" y="-428"/>
      <point x="298.469" y="-409.969"/>
      <point x="332.781" y="-373.781"/>
      <point x="348" y="-319.375"/>
      <point x="348" y="-283" type="qcurve" smooth="yes"/>
      <point x="348" y="1000" type="line"/>
      <point x="312" y="1000" type="line"/>
      <point x="312" y="-280" type="line" smooth="yes"/>
      <point x="312" y="-344.141"/>
      <point x="259.595" y="-396"/>
      <point x="203" y="-396" type="qcurve" smooth="yes"/>
    </contour>
    <contour>
      <point x="290" y="1260" type="line" smooth="yes"/>
      <point x="290" y="1241.89"/>
      <point x="295.89" y="1236"/>
      <point x="314" y="1236" type="qcurve" smooth="yes"/>
      <point x="342" y="1236" type="line" smooth="yes"/>
      <point x="360.11" y="1236"/>
      <point x="366" y="1241.89"/>
      <point x="366" y="1260" type="qcurve" smooth="yes"/>
      <point x="366" y="1288" type="line" smooth="yes"/>
      <point x="366" y="1306.11"/>
      <point x="360.11" y="1312"/>
      <point x="342" y="1312" type="qcurve" smooth="yes"/>
      <point x="314" y="1312" type="line" smooth="yes"/>
      <point x="295.89" y="1312"/>
      <point x="290" y="1306.11"/>
      <point x="290" y="1288" type="qcurve" smooth="yes"/>
    </contour>
  </outline>
</glyph>
<glyph name="uni01EA" format="2">
  <advance width="590"/>
  <unicode hex="01EA"/>
  <anchor x="291" y="1550" name="top"/>
  <anchor x="291" y="-150" name="bottom"/>
  <anchor x="505" y="1204" name="horn"/>
  <anchor x="309" y="0" name="ogonek"/>
  <outline>
    <contour>
      <point x="81" y="1208" type="qcurve" smooth="yes"/>
      <point x="81" y="192" type="line" smooth="yes"/>
      <point x="81" y="84.8468"/>
      <point x="173.847" y="-8"/>
      <point x="281" y="-8" type="qcurve" smooth="yes"/>
      <point x="309" y="-8" type="line" smooth="yes"/>
      <point x="416.153" y="-8"/>
      <point x="509" y="84.8468"/>
      <point x="509" y="192" type="qcurve" smooth="yes"/>
      <point x="509" y="1208" type="line" smooth="yes"/>
      <point x="509" y="1314.5"/>
      <point x="415.5" y="1408"/>
      <point x="309" y="1408" type="qcurve" smooth="yes"/>
      <point x="281" y="1408" type="line" smooth="yes"/>
      <point x="174.5" y="1408"/>
      <point x="81" y="1314.5"/>
    </contour>
    <contour>
      <point x="121" y="1210" type="line" smooth="yes"/>
      <point x="121" y="1299.8"/>
      <point x="191.693" y="1372"/>
      <point x="283" y="1372" type="qcurve" smooth="yes"/>
      <point x="307" y="1372" type="line" smooth="yes"/>
      <point x="398.307" y="1372"/>
      <point x="469" y="1299.8"/>
      <point x="469" y="1210" type="qcurve" smooth="yes"/>
      <point x="469" y="190" type="line" smooth="yes"/>
      <point x="469" y="100.203"/>
      <point x="398.307" y="28"/>
      <point x="307" y="28" type="qcurve" smooth="yes"/>
      <point x="283" y="28" type="line" smooth="yes"/>
      <point x="191.693" y="28"/>
      <point x="121" y="100.203"/>
      <point x="121" y="190" type="qcurve" smooth="yes"/>
    </contour>
    <contour>
      <point x="237.255" y="-359" type="qcurve" smooth="yes"/>
      <point x="258.115" y="-359"/>
      <point x="292.399" y="-347.81"/>
      <point x="309" y="-338" type="qcurve"/>
      <point x="309" y="-308" type="line"/>
      <point x="291.644" y="-318.564"/>
      <point x="257.565" y="-329"/>
      <point x="240.852" y="-329" type="qcurve" smooth="yes"/>
      <point x="206.252" y="-329"/>
      <point x="168" y="-285.034"/>
      <point x="168" y="-242.088" type="qcurve" smooth="yes"/>
      <point x="168" y="-185.427"/>
      <point x="238.068" y="-61.1226"/>
      <point x="309" y="0" type="qcurve"/>
      <point x="269" y="0" type="line"/>
      <point x="199.577" y="-65.6502"/>
      <point x="135" y="-190.381"/>
      <point x="135" y="-246.903" type="qcurve" smooth="yes"/>
      <point x="135" y="-302.062"/>
      <point x="190.201" y="-359"/>
    </contour>
  </outline>
</glyph>
<glyph name="uni0202" format="2">
  <advance width="520"/>
  <unicode hex="0202"/>
  <anchor x="261" y="1550" name="top"/>
  <anchor x="261" y="-150" name="bottom"/>
  <anchor x="481" y="0" name="ogonek_in"/>
  <outline>
    <contour>
      <point x="0" y="0" type="line"/>
      <point x="37" y="0" type="line"/>
      <point x="92" y="328" type="line"/>
      <point x="426" y="328" type="line"/>
      <point x="481" y="0" type="line"/>
      <point x="520" y="0" type="line"/>
      <point x="281" y="1400" type="line"/>
      <point x="237" y="1400" type="line"/>
    </contour>
    <contour>
      <point x="98" y="364" type="line"/>
      <point x="258" y="1319" type="line"/>
      <point x="419" y="364" type="line"/>
    </contour>
    <contour>
      <point x="253" y="1760" type="qcurve" smooth="yes"/>
      <point x="217.75" y="1760"/>
      <point x="164.562" y="1743.62"/>
      <point x="128.938" y="1696.38"/>
      <point x="111" y="1611"/>
      <point x="111" y="1542" type="qcurve"/>
      <point x="145" y="1542" type="line"/>
      <point x="145" y="1605"/>
      <point x="158.5" y="1677.62"/>
      <point x="185.5" y="1714.38"/>
      <point x="226" y="1724"/>
      <point x="253" y="1724" type="qcurve" smooth="yes"/>
      <point x="280" y="1724"/>
      <point x="320.5" y="1714.38"/>
      <point x="347.5" y="1677.62"/>
      <point x="361" y="1605"/>
      <point x="361" y="1542" type="qcurve"/>
      <point x="395" y="1542" type="line"/>
      <point x="395" y="1611"/>
      <point x="377.062" y="1696.38"/>
      <point x="341.438" y="1743.62"/>
      <point x="288.25" y="1760"/>
    </contour>
  </outline>
</glyph>
<glyph name="uni0206" format="2">
  <advance width="504"/>
  <unicode hex="0206"/>
  <anchor x="288" y="1550" name="top"/>
  <anchor x="288" y="-150" name="bottom"/>
  <anchor x="499" y="0" name="ogonek"/>
  <outline>
    <contour>
      <point x="95" y="0" type="line"/>
      <point x="499" y="0" type="line"/>
      <point x="499" y="36" type="line"/>
      <point x="135" y="36" type="line"/>
      <point x="135" y="700" type="line"/>
      <point x="459" y="700" type="line"/>
      <point x="459" y="736" type="line"/>
      <point x="135" y="736" type="line"/>
      <point x="135" y="1364" type="line"/>
      <point x="485" y="1364" type="line"/>
      <point x="485" y="1400" type="line"/>
      <point x="95" y="1400" type="line"/>
    </contour>
    <contour>
      <point x="280" y="1760" type="qcurve" smooth="yes"/>
      <point x="244.75" y="1760"/>
      <point x="191.562" y="1743.62"/>
      <point x="155.938" y="1696.38"/>
      <point x="138" y="1611"/>
      <point x="138" y="1542" type="qcurve"/>
      <point x="172" y="1542" type="line"/>
      <point x="172" y="1605"/>
      <point x="185.5" y="1677.62"/>
      <point x="212.5" y="1714.38"/>
      <point x="253" y="1724"/>
      <point x="280" y="1724" type="qcurve" smooth="yes"/>
      <point x="307" y="1724"/>
      <point x="347.5" y="1714.38"/>
      <point x="374.5" y="1677.62"/>
      <point x="388" y="1605"/>
      <point x="388" y="1542" type="qcurve"/>
      <point x="422" y="1542" type="line"/>
      <point x="422" y="1611"/>
      <point x="404.062" y="1696.38"/>
      <point x="368.438" y="1743.62"/>
      <point x="315.25" y="1760"/>
    </contour>
  </outline>
</glyph>
<glyph name="uni0209" format="2">
  <advance width="206"/>
  <unicode hex="0209"/>
  <anchor x="104" y="-150" name="bottom"/>
  <anchor x="104" y="1150" name="top"/>
  <anchor x="121" y="0" name="ogonek"/>
  <outline>
    <contour>
      <point x="85" y="0" type="line"/>
      <point x="121" y="0" type="line"/>
      <point x="121" y="1000" type="line"/>
      <point x="85" y="1000" type="line"/>
    </contour>
    <contour>
      <point x="159" y="-65" type="line"/>
      <point x="-51" y="250" type="line"/>
      <point x="-92" y="250" type="line"/>
      <point x="124" y="-65" type="line"/>
    </contour>
    <contour>
      <point x="-10" y="-65" type="line"/>
      <point x="-220" y="250" type="line"/>
      <point x="-261" y="250" type="line"/>
      <point x="-45" y="-65" type="line"/>
    </contour>
  </outline>
</glyph>
<glyph name="uni020A" format="2">
  <advance width="230"/>
  <unicode hex="020A"/>
  <anchor x="115" y="1550" name="top"/>
  <anchor x="115" y="-150" name="bottom"/>
  <anchor x="135" y="0" name="ogonek"/>
  <outline>
    <contour>
      <point x="95" y="0" type="line"/>
      <point x="135" y="0" type="line"/>
      <point x="135" y="1400" type="line"/>
      <point x="95" y="1400" type="line"/>
    </contour>
    <contour>
      <point x="107" y="1760" type="qcurve" smooth="yes"/>
      <point x="71.75" y="1760"/>
      <point x="18.5625" y="1743.62"/>
      <point x="-17.0625" y="1696.38"/>
      <point x="-35" y="1611"/>
      <point x="-35" y="1542" type="qcurve"/>
      <point x="-1" y="1542" type="line"/>
      <point x="-1" y="1605"/>
      <point x="12.5" y="1677.62"/>
      <point x="39.5" y="1714.38"/>
      <point x="80" y="1724"/>
      <point x="107" y="1724" type="qcurve" smooth="yes"/>
      <point x="134" y="1724"/>
      <point x="174.5" y="1714.38"/>
      <point x="201.5" y="1677.62"/>
      <point x="215" y="1605"/>
      <point x="215" y="1542" type="qcurve"/>
      <point x="249" y="1542" type="line"/>
      <point x="249" y="1611"/>
      <point x="231.062" y="1696.38"/>
      <point x="195.438" y="1743.62"/>
      <point x="142.25" y="1760"/>
    </contour>
  </outline>
</glyph>
<glyph name="uni0213" format="2">
  <advance width="406"/>
  <unicode hex="0213"/>
  <anchor x="233" y="1154" name="top"/>
  <anchor x="103" y="-150" name="bottom"/>
  <anchor x="-15" y="502" name="left"/>
  <outline>
    <contour>
      <point x="85" y="0" type="line"/>
      <point x="121" y="0" type="line"/>
      <point x="121" y="972" type="line"/>
      <point x="236" y="972" type="line" smooth="yes"/>
      <point x="292.595" y="972"/>
      <point x="345" y="920.141"/>
      <point x="345" y="856" type="qcurve" smooth="yes"/>
      <point x="345" y="752" type="line"/>
      <point x="381" y="760" type="line"/>
      <point x="381" y="859" type="line" smooth="yes"/>
      <point x="381" y="895.375"/>
      <point x="365.781" y="949.781"/>
      <point x="331.469" y="985.969"/>
      <point x="276.125" y="1004"/>
      <point x="236" y="1004" type="qcurve" smooth="yes"/>
      <point x="197" y="1004" type="line" smooth="yes"/>
      <point x="169.834" y="1004"/>
      <point x="131.564" y="989.583"/>
      <point x="121" y="976" type="qcurve"/>
      <point x="121" y="1000" type="line"/>
      <point x="85" y="1000" type="line"/>
    </contour>
    <contour>
      <point x="233" y="1391" type="qcurve" smooth="yes"/>
      <point x="201.875" y="1391"/>
      <point x="159.719" y="1375.25"/>
      <point x="134.031" y="1328.75"/>
      <point x="123" y="1244"/>
      <point x="123" y="1175" type="qcurve"/>
      <point x="153" y="1175" type="line"/>
      <point x="153" y="1238"/>
      <point x="160.844" y="1311.25"/>
      <point x="179.406" y="1348.75"/>
      <point x="210.125" y="1359"/>
      <point x="233" y="1359" type="qcurve" smooth="yes"/>
      <point x="255.875" y="1359"/>
      <point x="286.594" y="1348.75"/>
      <point x="305.156" y="1311.25"/>
      <point x="313" y="1238"/>
      <point x="313" y="1175" type="qcurve"/>
      <point x="343" y="1175" type="line"/>
      <point x="343" y="1244"/>
      <point x="331.969" y="1328.75"/>
      <point x="306.281" y="1375.25"/>
      <point x="264.125" y="1391"/>
    </contour>
  </outline>
</glyph>
<glyph name="uni0215" format="2">
  <advance width="504"/>
  <unicode hex="0215"/>
  <anchor x="253" y="1150" name="top"/>
  <anchor x="253" y="-150" name="bottom"/>
  <anchor x="271" y="0" name="ogonek"/>
  <anchor x="429" y="1000" name="horn"/>
  <outline>
    <contour>
      <point x="76" y="145" type="line" smooth="yes"/>
      <point x="76" y="71.8038"/>
      <point x="140.258" y="0"/>
      <point x="221" y="0" type="qcurve" smooth="yes"/>
      <point x="283" y="0" type="line" smooth="yes"/>
      <point x="356.196" y="0"/>
      <point x="428" y="64.2578"/>
      <point x="428" y="145" type="qcurve" smooth="yes"/>
      <point x="428" y="1000" type="line"/>
      <point x="392" y="1000" type="line"/>
      <point x="392" y="148" type="line" smooth="yes"/>
      <point x="392" y="83.1044"/>
      <point x="340.35" y="32"/>
      <point x="283" y="32" type="qcurve" smooth="yes"/>
      <point x="221" y="32" type="line" smooth="yes"/>
      <point x="163.65" y="32"/>
      <point x="112" y="83.1044"/>
      <point x="112" y="148" type="qcurve" smooth="yes"/>
      <point x="112" y="1000" type="line"/>
      <point x="76" y="1000" type="line"/>
    </contour>
    <contour>
      <point x="412" y="1085" type="line"/>
      <point x="202" y="1400" type="line"/>
      <point x="161" y="1400" type="line"/>
      <point x="377" y="1085" type="line"/>
    </contour>
    <contour>
      <point x="243" y="1085" type="line"/>
      <point x="33" y="1400" type="line"/>
      <point x="-8" y="1400" type="line"/>
      <point x="208" y="1085" type="line"/>
    </contour>
  </outline>
</glyph>
<glyph name="uni0331" format="2">
  <unicode hex="0331"/>
  <anchor x="6" y="-150" name="_bottom"/>
  <anchor x="0" y="-159" name="_top"/>
  <anchor x="0" y="-83" name="top"/>
  <outline>
    <contour>
      <point x="-120" y="-215" type="line"/>
      <point x="120" y="-215" type="line"/>
      <point x="120" y="-183" type="line"/>
      <point x="-120" y="-183" type="line"/>
    </contour>
  </outline>
</glyph>
<glyph name="uni0403" format="2">
  <advance width="453"/>
  <unicode hex="0403"/>
  <anchor x="272" y="1550" name="top"/>
  <anchor x="231" y="1485" name="topright"/>
  <outline>
    <contour>
      <point x="95" y="0" type="line"/>
      <point x="135" y="0" type="line"/>
      <point x="135" y="1364" type="line"/>
      <point x="448" y="1364" type="line"/>
      <point x="448" y="1400" type="line"/>
      <point x="95" y="1400" type="line"/>
    </contour>
    <contour>
      <point x="191" y="1485" type="line"/>
      <point x="231" y="1485" type="line"/>
      <point x="447" y="1800" type="line"/>
      <point x="401" y="1800" type="line"/>
    </contour>
  </outline>
</glyph>
<glyph name="uni0404" format="2">
  <advance width="566"/>
  <unicode hex="0404"/>
  <anchor x="325" y="1550" name="top"/>
  <outline>
    <contour>
      <point x="265" y="-8" type="qcurve" smooth="yes"/>
      <point x="329" y="-8" type="line" smooth="yes"/>
      <point x="427.853" y="-8"/>
      <point x="513" y="84.8468"/>
      <point x="513" y="192" type="qcurve" smooth="yes"/>
      <point x="513" y="436" type="line"/>
      <point x="473" y="444" type="line"/>
      <point x="473" y="190" type="line" smooth="yes"/>
      <point x="473" y="100.203"/>
      <point x="409.742" y="28"/>
      <point x="329" y="28" type="qcurve" smooth="yes"/>
      <point x="265" y="28" type="line" smooth="yes"/>
      <point x="184.258" y="28"/>
      <point x="121" y="100.203"/>
      <point x="121" y="190" type="qcurve" smooth="yes"/>
      <point x="121" y="700" type="line"/>
      <point x="384" y="700" type="line"/>
      <point x="384" y="736" type="line"/>
      <point x="121" y="736" type="line"/>
      <point x="121" y="1210" type="line" smooth="yes"/>
      <point x="121" y="1299.8"/>
      <point x="184.258" y="1372"/>
      <point x="265" y="1372" type="qcurve" smooth="yes"/>
      <point x="329" y="1372" type="line" smooth="yes"/>
      <point x="409.742" y="1372"/>
      <point x="473" y="1299.8"/>
      <point x="473" y="1210" type="qcurve" smooth="yes"/>
      <point x="473" y="986" type="line"/>
      <point x="513" y="994" type="line"/>
      <point x="513" y="1208" type="line" smooth="yes"/>
      <point x="513" y="1314.5"/>
      <point x="427.25" y="1408"/>
      <point x="329" y="1408" type="qcurve" smooth="yes"/>
      <point x="265" y="1408" type="line" smooth="yes"/>
      <point x="167.5" y="1408"/>
      <point x="81" y="1314.5"/>
      <point x="81" y="1208" type="qcurve" smooth="yes"/>
      <point x="81" y="192" type="line" smooth="yes"/>
      <point x="81" y="84.8468"/>
      <point x="166.902" y="-8"/>
    </contour>
  </outline>
  <guideline angle="90" color="1,0,0,1" x="395" y="0"/>
</glyph>
<glyph name="uni0414" format="2">
  <advance width="586"/>
  <unicode hex="0414"/>
  <outline>
    <contour>
      <point x="270" y="1400" type="line"/>
      <point x="59" y="36" type="line"/>
      <point x="10" y="36" type="line"/>
      <point x="10" y="-260" type="line"/>
      <point x="45" y="-260" type="line"/>
      <point x="45" y="0" type="line"/>
      <point x="541" y="0" type="line"/>
      <point x="541" y="-260" type="line"/>
      <point x="576" y="-260" type="line"/>
      <point x="576" y="36" type="line"/>
      <point x="527" y="36" type="line"/>
      <point x="314" y="1400" type="line"/>
    </contour>
    <contour>
      <point x="95" y="36" type="line"/>
      <point x="291" y="1316" type="line"/>
      <point x="488" y="36" type="line"/>
    </contour>
  </outline>
</glyph>
<glyph name="uni042A" format="2">
  <advance width="656"/>
  <unicode hex="042A"/>
  <outline>
    <contour>
      <point x="192" y="0" type="line"/>
      <point x="433" y="0" type="line" smooth="yes"/>
      <point x="478.375" y="0"/>
      <point x="543.469" y="22.5625"/>
      <point x="585.281" y="70.9375"/>
      <point x="605" y="146.75"/>
      <point x="605" y="200" type="qcurve" smooth="yes"/>
      <point x="605" y="606" type="line" smooth="yes"/>
      <point x="605" y="659.25"/>
      <point x="585.562" y="735.062"/>
      <point x="543.938" y="783.438"/>
      <point x="478.75" y="806"/>
      <point x="433" y="806" type="qcurve" smooth="yes"/>
      <point x="232" y="806" type="line"/>
      <point x="232" y="1400" type="line"/>
      <point x="5" y="1400" type="line"/>
      <point x="5" y="1364" type="line"/>
      <point x="192" y="1364" type="line"/>
    </contour>
    <contour>
      <point x="232" y="36" type="line"/>
      <point x="232" y="770" type="line"/>
      <point x="432" y="770" type="line" smooth="yes"/>
      <point x="506.705" y="770"/>
      <point x="565" y="697.797"/>
      <point x="565" y="608" type="qcurve" smooth="yes"/>
      <point x="565" y="198" type="line" smooth="yes"/>
      <point x="565" y="108.203"/>
      <point x="506.705" y="36"/>
      <point x="432" y="36" type="qcurve" smooth="yes"/>
    </contour>
  </outline>
</glyph>
<glyph name="uni0431" format="2">
  <advance width="482"/>
  <unicode hex="0431"/>
  <outline>
    <contour>
      <point x="380" y="1285" type="line"/>
      <point x="380" y="1275" type="line" smooth="yes"/>
      <point x="380" y="1251.61"/>
      <point x="345.503" y="1230.04"/>
      <point x="304" y="1224" type="qcurve" smooth="yes"/>
      <point x="217" y="1212" type="line" smooth="yes"/>
      <point x="145.313" y="1202.19"/>
      <point x="68" y="1129.4"/>
      <point x="68" y="1023" type="qcurve" smooth="yes"/>
      <point x="68" y="141" type="line" smooth="yes"/>
      <point x="68" y="60.2578"/>
      <point x="139.804" y="-4"/>
      <point x="213" y="-4" type="qcurve" smooth="yes"/>
      <point x="269" y="-4" type="line" smooth="yes"/>
      <point x="342.196" y="-4"/>
      <point x="414" y="60.2578"/>
      <point x="414" y="141" type="qcurve" smooth="yes"/>
      <point x="414" y="760" type="line" smooth="yes"/>
      <point x="414" y="840.742"/>
      <point x="342.196" y="905"/>
      <point x="269" y="905" type="qcurve" smooth="yes"/>
      <point x="218" y="905" type="line" smooth="yes"/>
      <point x="170.46" y="905"/>
      <point x="115.319" y="881.411"/>
      <point x="104" y="855" type="qcurve"/>
      <point x="104" y="1023" type="line" smooth="yes"/>
      <point x="104" y="1112.8"/>
      <point x="158.877" y="1167.94"/>
      <point x="220" y="1177" type="qcurve" smooth="yes"/>
      <point x="308" y="1190" type="line" smooth="yes"/>
      <point x="336.5" y="1193.75"/>
      <point x="376.125" y="1206.06"/>
      <point x="400.875" y="1225.94"/>
      <point x="412" y="1254.75"/>
      <point x="412" y="1275" type="qcurve" smooth="yes"/>
      <point x="412" y="1285" type="line"/>
    </contour>
    <contour>
      <point x="213" y="28" type="line" smooth="yes"/>
      <point x="148.859" y="28"/>
      <point x="104" y="87.405"/>
      <point x="104" y="144" type="qcurve" smooth="yes"/>
      <point x="104" y="745" type="line" smooth="yes"/>
      <point x="104" y="811.405"/>
      <point x="154.614" y="873"/>
      <point x="218" y="873" type="qcurve" smooth="yes"/>
      <point x="269" y="873" type="line" smooth="yes"/>
      <point x="333.141" y="873"/>
      <point x="378" y="814.35"/>
      <point x="378" y="757" type="qcurve" smooth="yes"/>
      <point x="378" y="144" type="line" smooth="yes"/>
      <point x="378" y="87.405"/>
      <point x="333.141" y="28"/>
      <point x="269" y="28" type="qcurve" smooth="yes"/>
    </contour>
  </outline>
</glyph>
<glyph name="uni043A" format="2">
  <advance width="461"/>
  <unicode hex="043A"/>
  <anchor x="275" y="1150" name="top"/>
  <outline>
    <contour>
      <point x="85" y="0" type="line"/>
      <point x="121" y="0" type="line"/>
      <point x="121" y="490" type="line"/>
      <point x="417" y="0" type="line"/>
      <point x="461" y="0" type="line"/>
      <point x="147" y="518" type="line"/>
      <point x="419" y="1000" type="line"/>
      <point x="381" y="1000" type="line"/>
      <point x="121" y="538" type="line"/>
      <point x="121" y="1000" type="line"/>
      <point x="85" y="1000" type="line"/>
    </contour>
  </outline>
</glyph>
<glyph name="uni0444" format="2">
  <advance width="700"/>
  <unicode hex="0444"/>
  <outline>
    <contour>
      <point x="213" y="-4" type="qcurve" smooth="yes"/>
      <point x="272" y="-4" type="line" smooth="yes"/>
      <point x="297.656" y="-4"/>
      <point x="325.963" y="4.454"/>
      <point x="332" y="12" type="qcurve"/>
      <point x="332" y="-428" type="line"/>
      <point x="368" y="-428" type="line"/>
      <point x="368" y="-4" type="line"/>
      <point x="487" y="-4" type="line" smooth="yes"/>
      <point x="560.196" y="-4"/>
      <point x="632" y="60.2578"/>
      <point x="632" y="141" type="qcurve" smooth="yes"/>
      <point x="632" y="859" type="line" smooth="yes"/>
      <point x="632" y="939.742"/>
      <point x="560.196" y="1004"/>
      <point x="487" y="1004" type="qcurve" smooth="yes"/>
      <point x="428" y="1004" type="line" smooth="yes"/>
      <point x="402.344" y="1004"/>
      <point x="374.037" y="995.546"/>
      <point x="368" y="988" type="qcurve"/>
      <point x="368" y="1400" type="line"/>
      <point x="332" y="1400" type="line"/>
      <point x="332" y="1004" type="line"/>
      <point x="213" y="1004" type="line" smooth="yes"/>
      <point x="139.804" y="1004"/>
      <point x="68" y="939.742"/>
      <point x="68" y="859" type="qcurve" smooth="yes"/>
      <point x="68" y="141" type="line" smooth="yes"/>
      <point x="68" y="60.2578"/>
      <point x="139.804" y="-4"/>
    </contour>
    <contour>
      <point x="332" y="28" type="line"/>
      <point x="213" y="28" type="line" smooth="yes"/>
      <point x="148.859" y="28"/>
      <point x="104" y="87.405"/>
      <point x="104" y="144" type="qcurve" smooth="yes"/>
      <point x="104" y="856" type="line" smooth="yes"/>
      <point x="104" y="912.595"/>
      <point x="148.859" y="972"/>
      <point x="213" y="972" type="qcurve" smooth="yes"/>
      <point x="332" y="972" type="line"/>
    </contour>
    <contour>
      <point x="368" y="28" type="line"/>
      <point x="368" y="972" type="line"/>
      <point x="487" y="972" type="line" smooth="yes"/>
      <point x="551.141" y="972"/>
      <point x="596" y="912.595"/>
      <point x="596" y="856" type="qcurve" smooth="yes"/>
      <point x="596" y="144" type="line" smooth="yes"/>
      <point x="596" y="87.405"/>
      <point x="551.141" y="28"/>
      <point x="487" y="28" type="qcurve" smooth="yes"/>
    </contour>
  </outline>
  <guideline angle="90" color="1,0,0,1" x="652" y="0"/>
  <guideline angle="90" color="1,0,0,1" x="350" y="0"/>
</glyph>
<glyph name="uni0448" format="2">
  <advance width="718"/>
  <unicode hex="0448"/>
  <outline>
    <contour>
      <point x="77" y="0" type="line"/>
      <point x="641" y="0" type="line"/>
      <point x="641" y="1000" type="line"/>
      <point x="605" y="1000" type="line"/>
      <point x="605" y="32" type="line"/>
      <point x="377" y="32" type="line"/>
      <point x="377" y="1000" type="line"/>
      <point x="341" y="1000" type="line"/>
      <point x="341" y="32" type="line"/>
      <point x="113" y="32" type="line"/>
      <point x="113" y="1000" type="line"/>
      <point x="77" y="1000" type="line"/>
    </contour>
  </outline>
</glyph>
<glyph name="uni044A" format="2">
  <advance width="554"/>
  <unicode hex="044A"/>
  <outline>
    <contour>
      <point x="146" y="0" type="line"/>
      <point x="341" y="0" type="line" smooth="yes"/>
      <point x="414.196" y="0"/>
      <point x="486" y="64.2578"/>
      <point x="486" y="145" type="qcurve" smooth="yes"/>
      <point x="486" y="549" type="line" smooth="yes"/>
      <point x="486" y="629.742"/>
      <point x="414.196" y="694"/>
      <point x="341" y="694" type="qcurve" smooth="yes"/>
      <point x="244" y="694" type="line" smooth="yes"/>
      <point x="218.344" y="694"/>
      <point x="189.546" y="686.301"/>
      <point x="182" y="678" type="qcurve"/>
      <point x="182" y="1000" type="line"/>
      <point x="0" y="1000" type="line"/>
      <point x="0" y="968" type="line"/>
      <point x="146" y="968" type="line"/>
    </contour>
    <contour>
      <point x="182" y="32" type="line"/>
      <point x="182" y="662" type="line"/>
      <point x="341" y="662" type="line" smooth="yes"/>
      <point x="405.141" y="662"/>
      <point x="450" y="602.595"/>
      <point x="450" y="546" type="qcurve" smooth="yes"/>
      <point x="450" y="148" type="line" smooth="yes"/>
      <point x="450" y="91.405"/>
      <point x="405.141" y="32"/>
      <point x="341" y="32" type="qcurve" smooth="yes"/>
    </contour>
  </outline>
</glyph>
<glyph name="uni0453" format="2">
  <advance width="393"/>
  <unicode hex="0453"/>
  <anchor x="223" y="1150" name="top"/>
  <outline>
    <contour>
      <point x="77" y="0" type="line"/>
      <point x="113" y="0" type="line"/>
      <point x="113" y="968" type="line"/>
      <point x="369" y="968" type="line"/>
      <point x="369" y="1000" type="line"/>
      <point x="77" y="1000" type="line"/>
    </contour>
    <contour>
      <point x="144" y="1085" type="line"/>
      <point x="179" y="1085" type="line"/>
      <point x="395" y="1400" type="line"/>
      <point x="354" y="1400" type="line"/>
    </contour>
  </outline>
</glyph>
<glyph name="uni0472" format="2">
  <advance width="590"/>
  <unicode hex="0472"/>
  <outline>
    <contour>
      <point x="254" y="-8" type="qcurve" smooth="yes"/>
      <point x="335" y="-8" type="line" smooth="yes"/>
      <point x="427.816" y="-8"/>
      <point x="509" y="84.8468"/>
      <point x="509" y="192" type="qcurve" smooth="yes"/>
      <point x="509" y="1208" type="line" smooth="yes"/>
      <point x="509" y="1314.5"/>
      <point x="426.5" y="1408"/>
      <point x="335" y="1408" type="qcurve" smooth="yes"/>
      <point x="254" y="1408" type="line" smooth="yes"/>
      <point x="162.5" y="1408"/>
      <point x="81" y="1314.5"/>
      <point x="81" y="1208" type="qcurve" smooth="yes"/>
      <point x="81" y="192" type="line" smooth="yes"/>
      <point x="81" y="84.8468"/>
      <point x="161.939" y="-8"/>
    </contour>
    <contour>
      <point x="121" y="716" type="line"/>
      <point x="121" y="1210" type="line" smooth="yes"/>
      <point x="121" y="1299.8"/>
      <point x="178.54" y="1372"/>
      <point x="254" y="1372" type="qcurve" smooth="yes"/>
      <point x="335" y="1372" type="line" smooth="yes"/>
      <point x="410.46" y="1372"/>
      <point x="469" y="1299.8"/>
      <point x="469" y="1210" type="qcurve" smooth="yes"/>
      <point x="469" y="716" type="line"/>
    </contour>
    <contour>
      <point x="254" y="28" type="line" smooth="yes"/>
      <point x="178.54" y="28"/>
      <point x="121" y="100.203"/>
      <point x="121" y="190" type="qcurve" smooth="yes"/>
      <point x="121" y="684" type="line"/>
      <point x="469" y="684" type="line"/>
      <point x="469" y="190" type="line" smooth="yes"/>
      <point x="469" y="100.203"/>
      <point x="410.46" y="28"/>
      <point x="335" y="28" type="qcurve" smooth="yes"/>
    </contour>
  </outline>
</glyph>
<glyph name="uni0475" format="2">
  <advance width="491"/>
  <unicode hex="0475"/>
  <outline>
    <contour>
      <point x="181" y="0" type="line"/>
      <point x="217" y="0" type="line"/>
      <point x="380" y="900" type="line" smooth="yes"/>
      <point x="386.037" y="932.448"/>
      <point x="416.061" y="969"/>
      <point x="447" y="969" type="qcurve" smooth="yes"/>
      <point x="483" y="969" type="line"/>
      <point x="491" y="1000" type="line"/>
      <point x="446" y="1000" type="line" smooth="yes"/>
      <point x="402.233" y="1000"/>
      <point x="355.301" y="953.031"/>
      <point x="347" y="907" type="qcurve" smooth="yes"/>
      <point x="201" y="91" type="line"/>
      <point x="37" y="1000" type="line"/>
      <point x="0" y="1000" type="line"/>
    </contour>
  </outline>
</glyph>
<glyph name="uni0491" format="2">
  <advance width="390"/>
  <unicode hex="0491"/>
  <outline>
    <contour>
      <point x="77" y="0" type="line"/>
      <point x="113" y="0" type="line"/>
      <point x="113" y="968" type="line"/>
      <point x="366" y="968" type="line"/>
      <point x="366" y="1158" type="line"/>
      <point x="333" y="1158" type="line"/>
      <point x="331" y="1000" type="line"/>
      <point x="77" y="1000" type="line"/>
    </contour>
  </outline>
</glyph>
<glyph name="uni0494" format="2">
  <advance width="548"/>
  <unicode hex="0494"/>
  <outline>
    <contour>
      <point x="95" y="0" type="line"/>
      <point x="135" y="0" type="line"/>
      <point x="135" y="750" type="line"/>
      <point x="330" y="750" type="line" smooth="yes"/>
      <point x="406.969" y="750"/>
      <point x="467" y="677.797"/>
      <point x="467" y="588" type="qcurve" smooth="yes"/>
      <point x="467" y="-230" type="line" smooth="yes"/>
      <point x="467" y="-319.797"/>
      <point x="407.724" y="-392"/>
      <point x="330" y="-392" type="qcurve" smooth="yes"/>
      <point x="185" y="-392" type="line"/>
      <point x="185" y="-428" type="line"/>
      <point x="333" y="-428" type="line" smooth="yes"/>
      <point x="379.5" y="-428"/>
      <point x="445.5" y="-405.438"/>
      <point x="487.5" y="-357.062"/>
      <point x="507" y="-281.25"/>
      <point x="507" y="-228" type="qcurve" smooth="yes"/>
      <point x="507" y="586" type="line" smooth="yes"/>
      <point x="507" y="639.25"/>
      <point x="486.875" y="715.062"/>
      <point x="444.125" y="763.438"/>
      <point x="377.5" y="786"/>
      <point x="331" y="786" type="qcurve" smooth="yes"/>
      <point x="135" y="786" type="line"/>
      <point x="135" y="1364" type="line"/>
      <point x="474" y="1364" type="line"/>
      <point x="474" y="1400" type="line"/>
      <point x="95" y="1400" type="line"/>
    </contour>
  </outline>
</glyph>
<glyph name="uni0497" format="2">
  <advance width="603"/>
  <unicode hex="0497"/>
  <outline>
    <contour>
      <point x="0" y="0" type="line"/>
      <point x="43" y="0" type="line"/>
      <point x="271" y="471" type="line"/>
      <point x="271" y="0" type="line"/>
      <point x="307" y="0" type="line"/>
      <point x="307" y="471" type="line"/>
      <point x="535" y="0" type="line" name="ATT"/>
      <point x="568" y="0" type="line"/>
      <point x="570" y="-240" type="line"/>
      <point x="603" y="-240" type="line"/>
      <point x="603" y="32" type="line"/>
      <point x="563" y="32" type="line"/>
      <point x="324" y="525" type="line"/>
      <point x="545" y="1000" type="line"/>
      <point x="508" y="1000" type="line"/>
      <point x="307" y="567" type="line"/>
      <point x="307" y="1000" type="line"/>
      <point x="271" y="1000" type="line"/>
      <point x="271" y="567" type="line"/>
      <point x="70" y="1000" type="line"/>
      <point x="33" y="1000" type="line"/>
      <point x="254" y="525" type="line"/>
    </contour>
  </outline>
</glyph>
<glyph name="uni049C" format="2">
  <advance width="565"/>
  <unicode hex="049C"/>
  <outline>
    <contour>
      <point x="95" y="0" type="line"/>
      <point x="135" y="0" type="line"/>
      <point x="135" y="709" type="line"/>
      <point x="197" y="709" type="line"/>
      <point x="197" y="280" type="line"/>
      <point x="230" y="280" type="line"/>
      <point x="230" y="1120" type="line"/>
      <point x="197" y="1120" type="line"/>
      <point x="197" y="745" type="line"/>
      <point x="135" y="745" type="line"/>
      <point x="135" y="1400" type="line"/>
      <point x="95" y="1400" type="line"/>
    </contour>
    <contour>
      <point x="223" y="727" type="line"/>
      <point x="521" y="0" type="line"/>
      <point x="565" y="0" type="line"/>
      <point x="262" y="729" type="line"/>
      <point x="525" y="1400" type="line"/>
      <point x="486" y="1400" type="line"/>
    </contour>
  </outline>
</glyph>
<glyph name="uni04B3" format="2">
  <advance width="379"/>
  <unicode hex="04B3"/>
  <outline>
    <contour>
      <point x="0" y="0" type="line"/>
      <point x="34" y="0" type="line"/>
      <point x="172" y="453" type="line"/>
      <point x="309" y="0" type="line" name="ATT"/>
      <point x="344" y="0" type="line"/>
      <point x="346" y="-240" type="line"/>
      <point x="379" y="-240" type="line"/>
      <point x="379" y="32" type="line"/>
      <point x="338" y="32" type="line"/>
      <point x="193" y="509" type="line"/>
      <point x="333" y="1000" type="line"/>
      <point x="299" y="1000" type="line"/>
      <point x="174" y="559" type="line"/>
      <point x="46" y="1000" type="line"/>
      <point x="8" y="1000" type="line"/>
      <point x="153" y="504" type="line"/>
    </contour>
  </outline>
</glyph>
<glyph name="uni04CF" format="2">
  <advance width="206"/>
  <unicode hex="04CF"/>
  <anchor x="105" y="1598" name="top"/>
  <anchor x="105" y="-150" name="bottom"/>
  <anchor x="121" y="1448" name="right"/>
  <anchor x="206" y="700" name="eldot"/>
  <outline>
    <contour>
      <point x="85" y="0" type="line"/>
      <point x="121" y="0" type="line"/>
      <point x="121" y="1448" type="line"/>
      <point x="85" y="1448" type="line"/>
    </contour>
  </outline>
</glyph>
<glyph name="uni04D8" format="2">
  <advance width="590"/>
  <unicode hex="04D8"/>
  <anchor x="295" y="1554" name="top"/>
  <anchor x="295" y="-154" name="bottom"/>
  <outline>
    <contour>
      <point x="281" y="-4" type="qcurve" smooth="yes"/>
      <point x="309" y="-4" type="line" smooth="yes"/>
      <point x="416.153" y="-4"/>
      <point x="509" y="88.8468"/>
      <point x="509" y="196" type="qcurve" smooth="yes"/>
      <point x="509" y="1204" type="line" smooth="yes"/>
      <point x="509" y="1310.5"/>
      <point x="415.5" y="1404"/>
      <point x="309" y="1404" type="qcurve" smooth="yes"/>
      <point x="281" y="1404" type="line" smooth="yes"/>
      <point x="174.5" y="1404"/>
      <point x="81" y="1310.5"/>
      <point x="81" y="1204" type="qcurve" smooth="yes"/>
      <point x="81" y="1008" type="line"/>
      <point x="121" y="1000" type="line"/>
      <point x="121" y="1206" type="line" smooth="yes"/>
      <point x="121" y="1297.31"/>
      <point x="193.203" y="1368"/>
      <point x="283" y="1368" type="qcurve" smooth="yes"/>
      <point x="307" y="1368" type="line" smooth="yes"/>
      <point x="396.797" y="1368"/>
      <point x="469" y="1297.31"/>
      <point x="469" y="1206" type="qcurve" smooth="yes"/>
      <point x="469" y="700" type="line"/>
      <point x="81" y="700" type="line"/>
      <point x="81" y="196" type="line" smooth="yes"/>
      <point x="81" y="89.5"/>
      <point x="174.5" y="-4"/>
    </contour>
    <contour>
      <point x="121" y="664" type="line"/>
      <point x="469" y="664" type="line"/>
      <point x="469" y="194" type="line" smooth="yes"/>
      <point x="469" y="102.693"/>
      <point x="396.797" y="32"/>
      <point x="307" y="32" type="qcurve" smooth="yes"/>
      <point x="283" y="32" type="line" smooth="yes"/>
      <point x="193.203" y="32"/>
      <point x="121" y="102.693"/>
      <point x="121" y="194" type="qcurve" smooth="yes"/>
    </contour>
  </outline>
</glyph>
<glyph name="uni04F2" format="2">
  <advance width="532"/>
  <unicode hex="04F2"/>
  <anchor x="266" y="1550" name="top"/>
  <anchor x="316" y="1485" name="topright"/>
  <outline>
    <contour>
      <point x="86" y="0" type="line"/>
      <point x="115" y="0" type="line" smooth="yes"/>
      <point x="168.577" y="0"/>
      <point x="241.681" y="77.6688"/>
      <point x="253" y="132" type="qcurve" smooth="yes"/>
      <point x="513" y="1400" type="line"/>
      <point x="475" y="1400" type="line"/>
      <point x="266" y="380" type="line"/>
      <point x="40" y="1400" type="line"/>
      <point x="0" y="1400" type="line"/>
      <point x="248" y="293" type="line"/>
      <point x="216" y="137" type="line" smooth="yes"/>
      <point x="206.19" y="90.2148"/>
      <point x="160.276" y="36"/>
      <point x="115" y="36" type="qcurve" smooth="yes"/>
      <point x="78" y="36" type="line"/>
    </contour>
    <contour>
      <point x="94" y="1485" type="line"/>
      <point x="134" y="1485" type="line"/>
      <point x="350" y="1800" type="line"/>
      <point x="304" y="1800" type="line"/>
    </contour>
    <contour>
      <point x="276" y="1485" type="line"/>
      <point x="316" y="1485" type="line"/>
      <point x="532" y="1800" type="line"/>
      <point x="486" y="1800" type="line"/>
    </contour>
  </outline>
  <guideline angle="90" x="272" y="0"/>
</glyph>
<glyph name="uni1E3E" format="2">
  <advance width="770"/>
  <unicode hex="1E3E"/>
  <anchor x="385" y="1550" name="top"/>
  <anchor x="385" y="-150" name="bottom"/>
  <anchor x="344" y="1485" name="topright"/>
  <outline>
    <contour>
      <point x="95" y="0" type="line"/>
      <point x="133" y="0" type="line"/>
      <point x="133" y="1259" type="line"/>
      <point x="381" y="465" type="line"/>
      <point x="635" y="1262" type="line"/>
      <point x="635" y="0" type="line"/>
      <point x="675" y="0" type="line"/>
      <point x="675" y="1400" type="line"/>
      <point x="644" y="1400" type="line"/>
      <point x="385" y="590" type="line"/>
      <point x="130" y="1400" type="line"/>
      <point x="95" y="1400" type="line"/>
    </contour>
    <contour>
      <point x="304" y="1485" type="line"/>
      <point x="344" y="1485" type="line"/>
      <point x="560" y="1800" type="line"/>
      <point x="514" y="1800" type="line"/>
    </contour>
  </outline>
  <guideline angle="90" x="-4195" y="0"/>
  <guideline angle="90" x="-3605" y="0"/>
  <guideline angle="90" x="-2993" y="0"/>
</glyph>
<glyph name="uni1EA4" format="2">
  <advance width="520"/>
  <unicode hex="1EA4"/>
  <anchor x="261" y="1550" name="top"/>
  <anchor x="261" y="-150" name="bottom"/>
  <anchor x="481" y="0" name="ogonek_in"/>
  <outline>
    <contour>
      <point x="0" y="0" type="line"/>
      <point x="37" y="0" type="line"/>
      <point x="92" y="328" type="line"/>
      <point x="426" y="328" type="line"/>
      <point x="481" y="0" type="line"/>
      <point x="520" y="0" type="line"/>
      <point x="281" y="1400" type="line"/>
      <point x="237" y="1400" type="line"/>
    </contour>
    <contour>
      <point x="98" y="364" type="line"/>
      <point x="258" y="1319" type="line"/>
      <point x="419" y="364" type="line"/>
    </contour>
    <contour>
      <point x="156" y="1485" type="line"/>
      <point x="188" y="1485" type="line"/>
      <point x="255" y="1745" type="line"/>
      <point x="321" y="1485" type="line"/>
      <point x="354" y="1485" type="line"/>
      <point x="275" y="1800" type="line"/>
      <point x="236" y="1800" type="line"/>
    </contour>
    <contour>
      <point x="364" y="1643" type="line"/>
      <point x="393" y="1643" type="line"/>
      <point x="448" y="1900" type="line"/>
      <point x="414" y="1900" type="line"/>
    </contour>
  </outline>
</glyph>
<glyph name="uni1EA6" format="2">
  <advance width="520"/>
  <unicode hex="1EA6"/>
  <anchor x="261" y="1550" name="top"/>
  <anchor x="261" y="-150" name="bottom"/>
  <anchor x="481" y="0" name="ogonek_in"/>
  <outline>
    <contour>
      <point x="0" y="0" type="line"/>
      <point x="37" y="0" type="line"/>
      <point x="92" y="328" type="line"/>
      <point x="426" y="328" type="line"/>
      <point x="481" y="0" type="line"/>
      <point x="520" y="0" type="line"/>
      <point x="281" y="1400" type="line"/>
      <point x="237" y="1400" type="line"/>
    </contour>
    <contour>
      <point x="98" y="364" type="line"/>
      <point x="258" y="1319" type="line"/>
      <point x="419" y="364" type="line"/>
    </contour>
    <contour>
      <point x="176" y="1485" type="line"/>
      <point x="208" y="1485" type="line"/>
      <point x="275" y="1745" type="line"/>
      <point x="341" y="1485" type="line"/>
      <point x="374" y="1485" type="line"/>
      <point x="295" y="1800" type="line"/>
      <point x="256" y="1800" type="line"/>
    </contour>
    <contour>
      <point x="389" y="1643" type="line"/>
      <point x="418" y="1643" type="line"/>
      <point x="368" y="1900" type="line"/>
      <point x="334" y="1900" type="line"/>
    </contour>
  </outline>
</glyph>
<glyph name="uni1EAE" format="2">
  <advance width="520"/>
  <unicode hex="1EAE"/>
  <anchor x="261" y="1550" name="top"/>
  <anchor x="261" y="-150" name="bottom"/>
  <anchor x="481" y="0" name="ogonek_in"/>
  <outline>
    <contour>
      <point x="0" y="0" type="line"/>
      <point x="37" y="0" type="line"/>
      <point x="92" y="328" type="line"/>
      <point x="426" y="328" type="line"/>
      <point x="481" y="0" type="line"/>
      <point x="520" y="0" type="line"/>
      <point x="281" y="1400" type="line"/>
      <point x="237" y="1400" type="line"/>
    </contour>
    <contour>
      <point x="98" y="364" type="line"/>
      <point x="258" y="1319" type="line"/>
      <point x="419" y="364" type="line"/>
    </contour>
    <contour>
      <point x="253" y="1542" type="qcurve" smooth="yes"/>
      <point x="288.25" y="1542"/>
      <point x="341.438" y="1558.38"/>
      <point x="377.062" y="1605.62"/>
      <point x="395" y="1691"/>
      <point x="395" y="1760" type="qcurve"/>
      <point x="361" y="1760" type="line"/>
      <point x="361" y="1697"/>
      <point x="347.5" y="1624.38"/>
      <point x="320.5" y="1587.62"/>
      <point x="280" y="1578"/>
      <point x="253" y="1578" type="qcurve" smooth="yes"/>
      <point x="226" y="1578"/>
      <point x="185.5" y="1587.62"/>
      <point x="158.5" y="1624.38"/>
      <point x="145" y="1697"/>
      <point x="145" y="1760" type="qcurve"/>
      <point x="111" y="1760" type="line"/>
      <point x="111" y="1691"/>
      <point x="128.938" y="1605.62"/>
      <point x="164.562" y="1558.38"/>
      <point x="217.75" y="1542"/>
    </contour>
    <contour>
      <point x="215" y="1797" type="line"/>
      <point x="244" y="1797" type="line"/>
      <point x="330" y="2054" type="line"/>
      <point x="296" y="2054" type="line"/>
    </contour>
  </outline>
</glyph>
<glyph name="uni1EBA" format="2">
  <advance width="504"/>
  <unicode hex="1EBA"/>
  <anchor x="288" y="1550" name="top"/>
  <anchor x="288" y="-150" name="bottom"/>
  <anchor x="499" y="0" name="ogonek"/>
  <outline>
    <contour>
      <point x="95" y="0" type="line"/>
      <point x="499" y="0" type="line"/>
      <point x="499" y="36" type="line"/>
      <point x="135" y="36" type="line"/>
      <point x="135" y="700" type="line"/>
      <point x="459" y="700" type="line"/>
      <point x="459" y="736" type="line"/>
      <point x="135" y="736" type="line"/>
      <point x="135" y="1364" type="line"/>
      <point x="485" y="1364" type="line"/>
      <point x="485" y="1400" type="line"/>
      <point x="95" y="1400" type="line"/>
    </contour>
    <contour>
      <point x="252" y="1516" type="qcurve"/>
      <point x="292" y="1516" type="line"/>
      <point x="320.675" y="1544.67"/>
      <point x="365" y="1635.93"/>
      <point x="365" y="1688" type="qcurve" smooth="yes"/>
      <point x="365" y="1750.63"/>
      <point x="308.994" y="1814"/>
      <point x="269" y="1814" type="qcurve" smooth="yes"/>
      <point x="241.834" y="1814"/>
      <point x="210.356" y="1798.58"/>
      <point x="193" y="1785" type="qcurve"/>
      <point x="210" y="1761" type="line"/>
      <point x="222.828" y="1771.56"/>
      <point x="245.89" y="1782"/>
      <point x="264" y="1782" type="qcurve" smooth="yes"/>
      <point x="288.902" y="1782"/>
      <point x="329" y="1736.29"/>
      <point x="329" y="1688" type="qcurve" smooth="yes"/>
      <point x="329" y="1641.21"/>
      <point x="293.503" y="1560.52"/>
    </contour>
  </outline>
</glyph>
<glyph name="uni1EBD" format="2">
  <advance width="472"/>
  <unicode hex="1EBD"/>
  <anchor x="232" y="1347" name="top"/>
  <anchor x="232" y="-150" name="bottom"/>
  <anchor x="304" y="0" name="ogonek"/>
  <outline>
    <contour>
      <point x="68" y="141" type="line" smooth="yes"/>
      <point x="68" y="67.8038"/>
      <point x="132.258" y="-4"/>
      <point x="213" y="-4" type="qcurve" smooth="yes"/>
      <point x="259" y="-4" type="line" smooth="yes"/>
      <point x="339.742" y="-4"/>
      <point x="404" y="67.8038"/>
      <point x="404" y="141" type="qcurve" smooth="yes"/>
      <point x="404" y="246" type="line"/>
      <point x="368" y="254" type="line"/>
      <point x="368" y="144" type="line" smooth="yes"/>
      <point x="368" y="79.859"/>
      <point x="315.595" y="28"/>
      <point x="259" y="28" type="qcurve" smooth="yes"/>
      <point x="213" y="28" type="line" smooth="yes"/>
      <point x="156.405" y="28"/>
      <point x="104" y="79.859"/>
      <point x="104" y="144" type="qcurve" smooth="yes"/>
      <point x="104" y="488" type="line"/>
      <point x="404" y="488" type="line"/>
      <point x="404" y="859" type="line" smooth="yes"/>
      <point x="404" y="932.196"/>
      <point x="339.742" y="1004"/>
      <point x="259" y="1004" type="qcurve" smooth="yes"/>
      <point x="213" y="1004" type="line" smooth="yes"/>
      <point x="132.258" y="1004"/>
      <point x="68" y="932.196"/>
      <point x="68" y="859" type="qcurve" smooth="yes"/>
    </contour>
    <contour>
      <point x="104" y="520" type="line"/>
      <point x="104" y="856" type="line" smooth="yes"/>
      <point x="104" y="920.141"/>
      <point x="156.405" y="972"/>
      <point x="213" y="972" type="qcurve" smooth="yes"/>
      <point x="259" y="972" type="line" smooth="yes"/>
      <point x="315.595" y="972"/>
      <point x="368" y="920.141"/>
      <point x="368" y="856" type="qcurve" smooth="yes"/>
      <point x="368" y="520" type="line"/>
    </contour>
    <contour>
      <point x="108" y="1135" type="qcurve"/>
      <point x="137" y="1129" type="line"/>
      <point x="143.037" y="1155.41"/>
      <point x="159.89" y="1180"/>
      <point x="178" y="1180" type="qcurve" smooth="yes"/>
      <point x="190.375" y="1180"/>
      <point x="213.969" y="1164.06"/>
      <point x="239.281" y="1144.94"/>
      <point x="267.75" y="1129"/>
      <point x="285" y="1129" type="qcurve" smooth="yes"/>
      <point x="311.25" y="1129"/>
      <point x="347.75" y="1161.75"/>
      <point x="356" y="1206" type="qcurve"/>
      <point x="327" y="1212" type="line"/>
      <point x="320.963" y="1185.59"/>
      <point x="304.11" y="1161"/>
      <point x="286" y="1161" type="qcurve" smooth="yes"/>
      <point x="273.625" y="1161"/>
      <point x="250.031" y="1176.94"/>
      <point x="224.719" y="1196.06"/>
      <point x="196.25" y="1212"/>
      <point x="179" y="1212" type="qcurve" smooth="yes"/>
      <point x="152.75" y="1212"/>
      <point x="116.25" y="1179.25"/>
    </contour>
  </outline>
  <guideline angle="0" color="1,0,0,1" x="0" y="-1004"/>
</glyph>
<glyph name="uni1EC9" format="2">
  <advance width="206"/>
  <unicode hex="1EC9"/>
  <anchor x="104" y="-150" name="bottom"/>
  <anchor x="104" y="1150" name="top"/>
  <anchor x="121" y="0" name="ogonek"/>
  <outline>
    <contour>
      <point x="85" y="0" type="line"/>
      <point x="121" y="0" type="line"/>
      <point x="121" y="1000" type="line"/>
      <point x="85" y="1000" type="line"/>
    </contour>
    <contour>
      <point x="68" y="1116" type="qcurve"/>
      <point x="108" y="1116" type="line"/>
      <point x="138.939" y="1143.17"/>
      <point x="180" y="1235.93"/>
      <point x="180" y="1288" type="qcurve" smooth="yes"/>
      <point x="180" y="1350.63"/>
      <point x="132.767" y="1414"/>
      <point x="89" y="1414" type="qcurve" smooth="yes"/>
      <point x="61.8344" y="1414"/>
      <point x="26.3558" y="1398.58"/>
      <point x="9" y="1385" type="qcurve"/>
      <point x="24" y="1363" type="line"/>
      <point x="36.8282" y="1373.56"/>
      <point x="66.8896" y="1384"/>
      <point x="85" y="1384" type="qcurve" smooth="yes"/>
      <point x="113.675" y="1384"/>
      <point x="146" y="1336.29"/>
      <point x="146" y="1288" type="qcurve" smooth="yes"/>
      <point x="146" y="1238.95"/>
      <point x="111.767" y="1159.01"/>
    </contour>
  </outline>
</glyph>
<glyph name="uni1ED4" format="2">
  <advance width="590"/>
  <unicode hex="1ED4"/>
  <anchor x="291" y="1880" name="top"/>
  <anchor x="291" y="-150" name="bottom"/>
  <anchor x="505" y="1204" name="horn"/>
  <anchor x="309" y="0" name="ogonek"/>
  <anchor x="431" y="1585" name="topright"/>
  <outline>
    <contour>
      <point x="81" y="1208" type="qcurve" smooth="yes"/>
      <point x="81" y="192" type="line" smooth="yes"/>
      <point x="81" y="84.8468"/>
      <point x="173.847" y="-8"/>
      <point x="281" y="-8" type="qcurve" smooth="yes"/>
      <point x="309" y="-8" type="line" smooth="yes"/>
      <point x="416.153" y="-8"/>
      <point x="509" y="84.8468"/>
      <point x="509" y="192" type="qcurve" smooth="yes"/>
      <point x="509" y="1208" type="line" smooth="yes"/>
      <point x="509" y="1314.5"/>
      <point x="415.5" y="1408"/>
      <point x="309" y="1408" type="qcurve" smooth="yes"/>
      <point x="281" y="1408" type="line" smooth="yes"/>
      <point x="174.5" y="1408"/>
      <point x="81" y="1314.5"/>
    </contour>
    <contour>
      <point x="121" y="1210" type="line" smooth="yes"/>
      <point x="121" y="1299.8"/>
      <point x="191.693" y="1372"/>
      <point x="283" y="1372" type="qcurve" smooth="yes"/>
      <point x="307" y="1372" type="line" smooth="yes"/>
      <point x="398.307" y="1372"/>
      <point x="469" y="1299.8"/>
      <point x="469" y="1210" type="qcurve" smooth="yes"/>
      <point x="469" y="190" type="line" smooth="yes"/>
      <point x="469" y="100.203"/>
      <point x="398.307" y="28"/>
      <point x="307" y="28" type="qcurve" smooth="yes"/>
      <point x="283" y="28" type="line" smooth="yes"/>
      <point x="191.693" y="28"/>
      <point x="121" y="100.203"/>
      <point x="121" y="190" type="qcurve" smooth="yes"/>
    </contour>
    <contour>
      <point x="150" y="1485" type="line"/>
      <point x="187" y="1485" type="line"/>
      <point x="289" y="1756" type="line"/>
      <point x="392" y="1485" type="line"/>
      <point x="431" y="1485" type="line"/>
      <point x="307" y="1800" type="line"/>
      <point x="272" y="1800" type="line"/>
    </contour>
    <contour>
      <point x="431" y="1585" type="qcurve"/>
      <point x="471" y="1585" type="line"/>
      <point x="499.675" y="1613.67"/>
      <point x="544" y="1704.93"/>
      <point x="544" y="1757" type="qcurve" smooth="yes"/>
      <point x="544" y="1819.63"/>
      <point x="487.994" y="1883"/>
      <point x="448" y="1883" type="qcurve" smooth="yes"/>
      <point x="420.834" y="1883"/>
      <point x="389.356" y="1867.58"/>
      <point x="372" y="1854" type="qcurve"/>
      <point x="389" y="1830" type="line"/>
      <point x="401.828" y="1840.56"/>
      <point x="424.89" y="1851"/>
      <point x="443" y="1851" type="qcurve" smooth="yes"/>
      <point x="467.902" y="1851"/>
      <point x="508" y="1805.29"/>
      <point x="508" y="1757" type="qcurve" smooth="yes"/>
      <point x="508" y="1710.21"/>
      <point x="472.503" y="1629.52"/>
    </contour>
  </outline>
</glyph>
<glyph name="uni1EF7" format="2">
  <advance width="407"/>
  <unicode hex="1EF7"/>
  <anchor x="228" y="1150" name="top"/>
  <anchor x="297" y="-300" name="bottom"/>
  <outline>
    <contour>
      <point x="7" y="-428" type="line"/>
      <point x="36" y="-428" type="line" smooth="yes"/>
      <point x="68.625" y="-428"/>
      <point x="114.844" y="-415.156"/>
      <point x="146.906" y="-384.594"/>
      <point x="167.25" y="-333.875"/>
      <point x="174" y="-296" type="qcurve" smooth="yes"/>
      <point x="407" y="1000" type="line"/>
      <point x="374" y="1000" type="line"/>
      <point x="212" y="96" type="line"/>
      <point x="50" y="1000" type="line"/>
      <point x="14" y="1000" type="line"/>
      <point x="194" y="0" type="line"/>
      <point x="142" y="-291" type="line" smooth="yes"/>
      <point x="131.436" y="-352.123"/>
      <point x="86.5582" y="-396"/>
      <point x="36" y="-396" type="qcurve" smooth="yes"/>
      <point x="0" y="-396" type="line"/>
    </contour>
    <contour>
      <point x="192" y="1116" type="qcurve"/>
      <point x="232" y="1116" type="line"/>
      <point x="262.939" y="1143.17"/>
      <point x="304" y="1235.93"/>
      <point x="304" y="1288" type="qcurve" smooth="yes"/>
      <point x="304" y="1350.63"/>
      <point x="256.767" y="1414"/>
      <point x="213" y="1414" type="qcurve" smooth="yes"/>
      <point x="185.834" y="1414"/>
      <point x="150.356" y="1398.58"/>
      <point x="133" y="1385" type="qcurve"/>
      <point x="148" y="1363" type="line"/>
      <point x="160.828" y="1373.56"/>
      <point x="190.89" y="1384"/>
      <point x="209" y="1384" type="qcurve" smooth="yes"/>
      <point x="237.675" y="1384"/>
      <point x="270" y="1336.29"/>
      <point x="270" y="1288" type="qcurve" smooth="yes"/>
      <point x="270" y="1238.95"/>
      <point x="235.767" y="1159.01"/>
    </contour>
  </outline>
</glyph>
<glyph name="perthousand" format="2">
  <advance width="1318"/>
  <unicode hex="2030"/>
  <outline>
    <contour>
      <point x="194" y="614" type="qcurve" smooth="yes"/>
      <point x="206" y="614" type="line" smooth="yes"/>
      <point x="268.632" y="614"/>
      <point x="323" y="666.859"/>
      <point x="323" y="731" type="qcurve" smooth="yes"/>
      <point x="323" y="1288" type="line" smooth="yes"/>
      <point x="323" y="1351.39"/>
      <point x="267.877" y="1404"/>
      <point x="206" y="1404" type="qcurve" smooth="yes"/>
      <point x="194" y="1404" type="line" smooth="yes"/>
      <point x="133.632" y="1404"/>
      <point x="76" y="1351.39"/>
      <point x="76" y="1288" type="qcurve" smooth="yes"/>
      <point x="76" y="731" type="line" smooth="yes"/>
      <point x="76" y="666.859"/>
      <point x="132.877" y="614"/>
    </contour>
    <contour>
      <point x="191" y="644" type="line" smooth="yes"/>
      <point x="146.479" y="644"/>
      <point x="110" y="680.479"/>
      <point x="110" y="725" type="qcurve" smooth="yes"/>
      <point x="110" y="1293" type="line" smooth="yes"/>
      <point x="110" y="1337.52"/>
      <point x="146.479" y="1374"/>
      <point x="191" y="1374" type="qcurve" smooth="yes"/>
      <point x="209" y="1374" type="line" smooth="yes"/>
      <point x="255.031" y="1374"/>
      <point x="289" y="1337.52"/>
      <point x="289" y="1293" type="qcurve" smooth="yes"/>
      <point x="289" y="725" type="line" smooth="yes"/>
      <point x="289" y="680.479"/>
      <point x="255.031" y="644"/>
      <point x="209" y="644" type="qcurve" smooth="yes"/>
    </contour>
    <contour>
      <point x="745" y="1400" type="line"/>
      <point x="141" y="0" type="line"/>
      <point x="174" y="0" type="line"/>
      <point x="778" y="1400" type="line"/>
    </contour>
    <contour>
      <point x="714" y="-3" type="qcurve" smooth="yes"/>
      <point x="726" y="-3" type="line" smooth="yes"/>
      <point x="788.632" y="-3"/>
      <point x="843" y="49.859"/>
      <point x="843" y="114" type="qcurve" smooth="yes"/>
      <point x="843" y="671" type="line" smooth="yes"/>
      <point x="843" y="734.386"/>
      <point x="787.877" y="787"/>
      <point x="726" y="787" type="qcurve" smooth="yes"/>
      <point x="714" y="787" type="line" smooth="yes"/>
      <point x="653.632" y="787"/>
      <point x="596" y="734.386"/>
      <point x="596" y="671" type="qcurve" smooth="yes"/>
      <point x="596" y="114" type="line" smooth="yes"/>
      <point x="596" y="49.859"/>
      <point x="652.877" y="-3"/>
    </contour>
    <contour>
      <point x="711" y="27" type="line" smooth="yes"/>
      <point x="666.479" y="27"/>
      <point x="630" y="63.4786"/>
      <point x="630" y="108" type="qcurve" smooth="yes"/>
      <point x="630" y="676" type="line" smooth="yes"/>
      <point x="630" y="720.521"/>
      <point x="666.479" y="757"/>
      <point x="711" y="757" type="qcurve" smooth="yes"/>
      <point x="729" y="757" type="line" smooth="yes"/>
      <point x="775.031" y="757"/>
      <point x="809" y="720.521"/>
      <point x="809" y="676" type="qcurve" smooth="yes"/>
      <point x="809" y="108" type="line" smooth="yes"/>
      <point x="809" y="63.4786"/>
      <point x="775.031" y="27"/>
      <point x="729" y="27" type="qcurve" smooth="yes"/>
    </contour>
    <contour>
      <point x="1113" y="-3" type="qcurve" smooth="yes"/>
      <point x="1125" y="-3" type="line" smooth="yes"/>
      <point x="1187.63" y="-3"/>
      <point x="1242" y="49.859"/>
      <point x="1242" y="114" type="qcurve" smooth="yes"/>
      <point x="1242" y="671" type="line" smooth="yes"/>
      <point x="1242" y="734.386"/>
      <point x="1186.88" y="787"/>
      <point x="1125" y="787" type="qcurve" smooth="yes"/>
      <point x="1113" y="787" type="line" smooth="yes"/>
      <point x="1052.63" y="787"/>
      <point x="995" y="734.386"/>
      <point x="995" y="671" type="qcurve" smooth="yes"/>
      <point x="995" y="114" type="line" smooth="yes"/>
      <point x="995" y="49.859"/>
      <point x="1051.88" y="-3"/>
    </contour>
    <contour>
      <point x="1110" y="27" type="line" smooth="yes"/>
      <point x="1065.48" y="27"/>
      <point x="1029" y="63.4786"/>
      <point x="1029" y="108" type="qcurve" smooth="yes"/>
      <point x="1029" y="676" type="line" smooth="yes"/>
      <point x="1029" y="720.521"/>
      <point x="1065.48" y="757"/>
      <point x="1110" y="757" type="qcurve" smooth="yes"/>
      <point x="1128" y="757" type="line" smooth="yes"/>
      <point x="1174.03" y="757"/>
      <point x="1208" y="720.521"/>
      <point x="1208" y="676" type="qcurve" smooth="yes"/>
      <point x="1208" y="108" type="line" smooth="yes"/>
      <point x="1208" y="63.4786"/>
      <point x="1174.03" y="27"/>
      <point x="1128" y="27" type="qcurve" smooth="yes"/>
    </contour>
  </outline>
</glyph>
<glyph name="uni20AD" format="2">
  <advance width="557"/>
  <unicode hex="20AD"/>
  <outline>
    <contour>
      <point x="41" y="736" type="line"/>
      <point x="341" y="736" type="line"/>
      <point x="341" y="704" type="line"/>
      <point x="41" y="704" type="line"/>
    </contour>
    <contour>
      <point x="95" y="1400" type="line"/>
      <point x="135" y="1400" type="line"/>
      <point x="135" y="726" type="line"/>
      <point x="129" y="727" type="line"/>
      <point x="482" y="1400" type="line"/>
      <point x="523" y="1400" type="line"/>
      <point x="156" y="704" type="line"/>
      <point x="156" y="726" type="line"/>
      <point x="557" y="0" type="line"/>
      <point x="511" y="0" type="line"/>
      <point x="129" y="696" type="line"/>
      <point x="135" y="697" type="line"/>
      <point x="135" y="0" type="line"/>
      <point x="95" y="0" type="line"/>
    </contour>
  </outline>
</glyph>
<glyph name="uni20BA" format="2">
  <advance width="525"/>
  <unicode hex="20BA"/>
  <outline>
    <contour>
      <point x="175" y="0" type="line"/>
      <point x="229" y="0" type="line" smooth="yes"/>
      <point x="282.625" y="0"/>
      <point x="369.781" y="46.2188"/>
      <point x="431.469" y="185.531"/>
      <point x="465" y="441.375"/>
      <point x="465" y="651" type="qcurve"/>
      <point x="423" y="660" type="line"/>
      <point x="423" y="456.375"/>
      <point x="391.625" y="210.469"/>
      <point x="338.375" y="78.2812"/>
      <point x="268" y="36"/>
      <point x="229" y="36" type="qcurve" smooth="yes"/>
      <point x="215" y="36" type="line"/>
      <point x="215" y="841" type="line"/>
      <point x="378" y="900" type="line"/>
      <point x="378" y="938" type="line"/>
      <point x="215" y="879" type="line"/>
      <point x="215" y="1011" type="line"/>
      <point x="378" y="1070" type="line"/>
      <point x="378" y="1108" type="line"/>
      <point x="215" y="1049" type="line"/>
      <point x="215" y="1400" type="line"/>
      <point x="175" y="1400" type="line"/>
      <point x="175" y="1035" type="line"/>
      <point x="57" y="992" type="line"/>
      <point x="57" y="954" type="line"/>
      <point x="175" y="997" type="line"/>
      <point x="175" y="865" type="line"/>
      <point x="57" y="822" type="line"/>
      <point x="57" y="784" type="line"/>
      <point x="175" y="827" type="line"/>
    </contour>
  </outline>
</glyph>
<glyph name="arrowdown" format="2">
  <advance width="396"/>
  <unicode hex="2193"/>
  <outline>
    <contour>
      <point x="218" y="1448" type="line"/>
      <point x="178" y="1448" type="line"/>
      <point x="178" y="480" type="line"/>
      <point x="20" y="480" type="line"/>
      <point x="198" y="-10" type="line"/>
      <point x="376" y="480" type="line"/>
      <point x="218" y="480" type="line"/>
    </contour>
  </outline>
</glyph>
<glyph name="notequal" format="2">
  <advance width="608"/>
  <unicode hex="2260"/>
  <outline>
    <contour>
      <point x="61" y="475" type="line"/>
      <point x="61" y="439" type="line"/>
      <point x="231" y="439" type="line"/>
      <point x="177" y="291" type="line"/>
      <point x="217" y="291" type="line"/>
      <point x="271" y="439" type="line"/>
      <point x="547" y="439" type="line"/>
      <point x="547" y="475" type="line"/>
      <point x="284" y="475" type="line"/>
      <point x="366" y="699" type="line"/>
      <point x="547" y="699" type="line"/>
      <point x="547" y="735" type="line"/>
      <point x="379" y="735" type="line"/>
      <point x="431" y="877" type="line"/>
      <point x="391" y="877" type="line"/>
      <point x="339" y="735" type="line"/>
      <point x="61" y="735" type="line"/>
      <point x="61" y="699" type="line"/>
      <point x="326" y="699" type="line"/>
      <point x="244" y="475" type="line"/>
    </contour>
  </outline>
</glyph>
<glyph name="uni25A1" format="2">
  <advance width="1590"/>
  <unicode hex="25A1"/>
  <outline>
    <contour>
      <point x="95" y="0" type="line"/>
      <point x="1495" y="0" type="line"/>
      <point x="1495" y="1400" type="line"/>
      <point x="95" y="1400" type="line"/>
    </contour>
    <contour>
      <point x="135" y="36" type="line"/>
      <point x="135" y="1364" type="line"/>
      <point x="1455" y="1364" type="line"/>
      <point x="1455" y="36" type="line"/>
    </contour>
  </outline>
</glyph>
<glyph name="Germandbls.c2sc" format="2">
  <advance width="511"/>
  <outline>
    <contour>
      <point x="95" y="0" type="line"/>
      <point x="132" y="0" type="line"/>
      <point x="132" y="916" type="line" smooth="yes"/>
      <point x="132" y="976.368"/>
      <point x="182.295" y="1035"/>
      <point x="257" y="1035" type="qcurve" smooth="yes"/>
      <point x="270" y="1035" type="line" smooth="yes"/>
      <point x="343.951" y="1035"/>
      <point x="388.436" y="983.577"/>
      <point x="399" y="930" type="qcurve"/>
      <point x="238" y="530" type="line"/>
      <point x="238" y="500" type="line"/>
      <point x="287" y="500" type="line" smooth="yes"/>
      <point x="360.951" y="500"/>
      <point x="423" y="406.061"/>
      <point x="423" y="314" type="qcurve" smooth="yes"/>
      <point x="423" y="219" type="line" smooth="yes"/>
      <point x="423" y="126.184"/>
      <point x="360.951" y="33"/>
      <point x="287" y="33" type="qcurve" smooth="yes"/>
      <point x="175" y="33" type="line"/>
      <point x="175" y="0" type="line"/>
      <point x="287" y="0" type="line" smooth="yes"/>
      <point x="378.307" y="0"/>
      <point x="460" y="111.583"/>
      <point x="460" y="221" type="qcurve" smooth="yes"/>
      <point x="460" y="311" type="line" smooth="yes"/>
      <point x="460" y="365.75"/>
      <point x="440.344" y="448.812"/>
      <point x="398.906" y="504.688"/>
      <point x="334.625" y="533"/>
      <point x="290" y="533" type="qcurve" smooth="yes"/>
      <point x="274" y="533" type="line"/>
      <point x="435" y="936" type="line"/>
      <point x="423.681" y="1001.65"/>
      <point x="360.552" y="1068"/>
      <point x="270" y="1068" type="qcurve" smooth="yes"/>
      <point x="257" y="1068" type="line" smooth="yes"/>
      <point x="164.939" y="1068"/>
      <point x="95" y="991.478"/>
      <point x="95" y="913" type="qcurve" smooth="yes"/>
    </contour>
  </outline>
</glyph>
<glyph name="dollar.alt2" format="2">
  <advance width="562"/>
  <outline>
    <contour>
      <point x="249" y="16" type="qcurve" smooth="yes"/>
      <point x="317" y="16" type="line" smooth="yes"/>
      <point x="370.25" y="16"/>
      <point x="446.062" y="38.5625"/>
      <point x="494.438" y="86.9375"/>
      <point x="517" y="162.75"/>
      <point x="517" y="216" type="qcurve" smooth="yes"/>
      <point x="517" y="526" type="line" smooth="yes"/>
      <point x="517" y="579.25"/>
      <point x="494.438" y="655.062"/>
      <point x="446.062" y="703.438"/>
      <point x="370.25" y="726"/>
      <point x="317" y="726" type="qcurve" smooth="yes"/>
      <point x="263" y="726" type="line" smooth="yes"/>
      <point x="173.203" y="726"/>
      <point x="101" y="796.693"/>
      <point x="101" y="888" type="qcurve" smooth="yes"/>
      <point x="101" y="1186" type="line" smooth="yes"/>
      <point x="101" y="1277.31"/>
      <point x="173.203" y="1348"/>
      <point x="263" y="1348" type="qcurve" smooth="yes"/>
      <point x="303" y="1348" type="line" smooth="yes"/>
      <point x="392.797" y="1348"/>
      <point x="465" y="1277.31"/>
      <point x="465" y="1186" type="qcurve" smooth="yes"/>
      <point x="465" y="1012" type="line"/>
      <point x="505" y="1022" type="line"/>
      <point x="505" y="1184" type="line" smooth="yes"/>
      <point x="505" y="1237.25"/>
      <point x="482.438" y="1313.06"/>
      <point x="434.062" y="1361.44"/>
      <point x="358.25" y="1384"/>
      <point x="305" y="1384" type="qcurve" smooth="yes"/>
      <point x="261" y="1384" type="line" smooth="yes"/>
      <point x="207.75" y="1384"/>
      <point x="131.938" y="1361.44"/>
      <point x="83.5625" y="1313.06"/>
      <point x="61" y="1237.25"/>
      <point x="61" y="1184" type="qcurve" smooth="yes"/>
      <point x="61" y="890" type="line" smooth="yes"/>
      <point x="61" y="836.75"/>
      <point x="83.5625" y="760.938"/>
      <point x="131.938" y="712.562"/>
      <point x="207.75" y="690"/>
      <point x="261" y="690" type="qcurve" smooth="yes"/>
      <point x="319" y="690" type="line" smooth="yes"/>
      <point x="408.797" y="690"/>
      <point x="481" y="619.307"/>
      <point x="481" y="528" type="qcurve" smooth="yes"/>
      <point x="481" y="214" type="line" smooth="yes"/>
      <point x="481" y="122.693"/>
      <point x="408.797" y="52"/>
      <point x="319" y="52" type="qcurve" smooth="yes"/>
      <point x="251" y="52" type="line" smooth="yes"/>
      <point x="161.203" y="52"/>
      <point x="89" y="122.693"/>
      <point x="89" y="214" type="qcurve" smooth="yes"/>
      <point x="89" y="410" type="line"/>
      <point x="49" y="400" type="line"/>
      <point x="49" y="216" type="line" smooth="yes"/>
      <point x="49" y="162.75"/>
      <point x="71.5625" y="86.9375"/>
      <point x="119.938" y="38.5625"/>
      <point x="195.75" y="16"/>
    </contour>
    <contour>
      <point x="236" y="-154" type="line"/>
      <point x="272" y="-154" type="line"/>
      <point x="272" y="1554" type="line"/>
      <point x="236" y="1554" type="line"/>
    </contour>
    <contour>
      <point x="296" y="-154" type="line"/>
      <point x="332" y="-154" type="line"/>
      <point x="332" y="1554" type="line"/>
      <point x="296" y="1554" type="line"/>
    </contour>
  </outline>
</glyph>
<glyph name="eight.sinf" format="2">
  <advance width="247"/>
  <outline>
    <contour>
      <point x="34" y="-185" type="qcurve" smooth="yes"/>
      <point x="34" y="-7" type="line" smooth="yes"/>
      <point x="34" y="43.5582"/>
      <point x="68.0062" y="86"/>
      <point x="108" y="86" type="qcurve" smooth="yes"/>
      <point x="139" y="86" type="line" smooth="yes"/>
      <point x="158.875" y="86"/>
      <point x="186.969" y="75.7812"/>
      <point x="204.781" y="53.4688"/>
      <point x="213" y="18.125"/>
      <point x="213" y="-7" type="qcurve" smooth="yes"/>
      <point x="213" y="-185" type="line" smooth="yes"/>
      <point x="213" y="-239.331"/>
      <point x="162.448" y="-270"/>
      <point x="130" y="-270" type="qcurve" smooth="yes"/>
      <point x="117" y="-270" type="line" smooth="yes"/>
      <point x="83.7976" y="-270"/>
      <point x="34" y="-239.331"/>
    </contour>
    <contour>
      <point x="207" y="380" type="qcurve" smooth="yes"/>
      <point x="207" y="208" type="line" smooth="yes"/>
      <point x="207" y="167.252"/>
      <point x="174.785" y="116"/>
      <point x="128" y="116" type="qcurve" smooth="yes"/>
      <point x="119" y="116" type="line" smooth="yes"/>
      <point x="72.9694" y="116"/>
      <point x="40" y="167.252"/>
      <point x="40" y="208" type="qcurve" smooth="yes"/>
      <point x="40" y="380" type="line" smooth="yes"/>
      <point x="40" y="419.239"/>
      <point x="78.0062" y="460"/>
      <point x="118" y="460" type="qcurve" smooth="yes"/>
      <point x="128" y="460" type="line" smooth="yes"/>
      <point x="168.748" y="460"/>
      <point x="207" y="419.239"/>
    </contour>
    <contour>
      <point x="0" y="-184" type="line" smooth="yes"/>
      <point x="0" y="-254.932"/>
      <point x="68.4602" y="-300"/>
      <point x="116" y="-300" type="qcurve" smooth="yes"/>
      <point x="131" y="-300" type="line" smooth="yes"/>
      <point x="179.294" y="-300"/>
      <point x="247" y="-254.932"/>
      <point x="247" y="-184" type="qcurve" smooth="yes"/>
      <point x="247" y="-10" type="line" smooth="yes"/>
      <point x="247" y="46.595"/>
      <point x="211.693" y="94.9448"/>
      <point x="180" y="104" type="qcurve"/>
      <point x="211.693" y="110.037"/>
      <point x="241" y="169.988"/>
      <point x="241" y="213" type="qcurve" smooth="yes"/>
      <point x="241" y="379" type="line" smooth="yes"/>
      <point x="241" y="434.086"/>
      <point x="186.595" y="490"/>
      <point x="130" y="490" type="qcurve" smooth="yes"/>
      <point x="117" y="490" type="line" smooth="yes"/>
      <point x="60.405" y="490"/>
      <point x="6" y="434.086"/>
      <point x="6" y="379" type="qcurve" smooth="yes"/>
      <point x="6" y="213" type="line" smooth="yes"/>
      <point x="6" y="169.988"/>
      <point x="35.3068" y="110.037"/>
      <point x="67" y="104" type="qcurve"/>
      <point x="35.3068" y="94.9448"/>
      <point x="0" y="46.595"/>
      <point x="0" y="-10" type="qcurve" smooth="yes"/>
    </contour>
  </outline>
</glyph>
<glyph name="f.sc" format="2">
  <advance width="416"/>
  <outline>
    <contour>
      <point x="95" y="0" type="line"/>
      <point x="132" y="0" type="line"/>
      <point x="132" y="526" type="line"/>
      <point x="382" y="526" type="line"/>
      <point x="382" y="559" type="line"/>
      <point x="132" y="559" type="line"/>
      <point x="132" y="1027" type="line"/>
      <point x="411" y="1027" type="line"/>
      <point x="411" y="1060" type="line"/>
      <point x="95" y="1060" type="line"/>
    </contour>
  </outline>
</glyph>
<glyph name="five.dnom" format="2">
  <advance width="318"/>
  <outline>
    <contour>
      <point x="138" y="-7" type="qcurve" smooth="yes"/>
      <point x="158.25" y="-7"/>
      <point x="206.438" y="5.625"/>
      <point x="248.062" y="52.875"/>
      <point x="276" y="145.75"/>
      <point x="276" y="226" type="qcurve" smooth="yes"/>
      <point x="276" y="301.75"/>
      <point x="256.594" y="394.438"/>
      <point x="222.656" y="445.062"/>
      <point x="176.625" y="462"/>
      <point x="150" y="462" type="qcurve" smooth="yes"/>
      <point x="132.644" y="462"/>
      <point x="92.0736" y="450.81"/>
      <point x="80" y="441" type="qcurve"/>
      <point x="104" y="751" type="line"/>
      <point x="238" y="751" type="line"/>
      <point x="247" y="784" type="line"/>
      <point x="77" y="784" type="line"/>
      <point x="46" y="391" type="line"/>
      <point x="68.638" y="412.129"/>
      <point x="119.098" y="432"/>
      <point x="144" y="432" type="qcurve" smooth="yes"/>
      <point x="168.75" y="432"/>
      <point x="205.562" y="413.469"/>
      <point x="229.938" y="366.781"/>
      <point x="242" y="287.125"/>
      <point x="242" y="226" type="qcurve" smooth="yes"/>
      <point x="242" y="95.4542"/>
      <point x="174.239" y="23"/>
      <point x="135" y="23" type="qcurve" smooth="yes"/>
      <point x="104.816" y="23"/>
      <point x="64.638" y="35.6626"/>
      <point x="42" y="50" type="qcurve"/>
      <point x="50" y="12" type="line"/>
      <point x="69.6196" y="2.1902"/>
      <point x="108.571" y="-7"/>
    </contour>
  </outline>
</glyph>
<glyph name="five.numr" format="2">
  <advance width="318"/>
  <outline>
    <contour>
      <point x="138" y="614" type="qcurve" smooth="yes"/>
      <point x="158.25" y="614"/>
      <point x="206.438" y="626.625"/>
      <point x="248.062" y="673.875"/>
      <point x="276" y="766.75"/>
      <point x="276" y="847" type="qcurve" smooth="yes"/>
      <point x="276" y="922.75"/>
      <point x="256.594" y="1015.44"/>
      <point x="222.656" y="1066.06"/>
      <point x="176.625" y="1083"/>
      <point x="150" y="1083" type="qcurve" smooth="yes"/>
      <point x="132.644" y="1083"/>
      <point x="92.0736" y="1071.81"/>
      <point x="80" y="1062" type="qcurve"/>
      <point x="104" y="1372" type="line"/>
      <point x="238" y="1372" type="line"/>
      <point x="247" y="1405" type="line"/>
      <point x="77" y="1405" type="line"/>
      <point x="46" y="1012" type="line"/>
      <point x="68.638" y="1033.13"/>
      <point x="119.098" y="1053"/>
      <point x="144" y="1053" type="qcurve" smooth="yes"/>
      <point x="168.75" y="1053"/>
      <point x="205.562" y="1034.47"/>
      <point x="229.938" y="987.781"/>
      <point x="242" y="908.125"/>
      <point x="242" y="847" type="qcurve" smooth="yes"/>
      <point x="242" y="716.454"/>
      <point x="174.239" y="644"/>
      <point x="135" y="644" type="qcurve" smooth="yes"/>
      <point x="104.816" y="644"/>
      <point x="64.638" y="656.663"/>
      <point x="42" y="671" type="qcurve"/>
      <point x="50" y="633" type="line"/>
      <point x="69.6196" y="623.19"/>
      <point x="108.571" y="614"/>
    </contour>
  </outline>
</glyph>
<glyph name="gcaron.sc" format="2">
  <advance width="509"/>
  <anchor x="260" y="1550" name="top"/>
  <anchor x="260" y="-150" name="bottom"/>
  <anchor x="131" y="1302" name="topright"/>
  <outline>
    <contour>
      <point x="81" y="910" type="qcurve" smooth="yes"/>
      <point x="81" y="151" type="line" smooth="yes"/>
      <point x="81" y="67.994"/>
      <point x="156.466" y="-3"/>
      <point x="244" y="-3" type="qcurve" smooth="yes"/>
      <point x="274" y="-3" type="line" smooth="yes"/>
      <point x="361.534" y="-3"/>
      <point x="438" y="67.994"/>
      <point x="438" y="151" type="qcurve" smooth="yes"/>
      <point x="438" y="533" type="line"/>
      <point x="260" y="533" type="line"/>
      <point x="260" y="500" type="line"/>
      <point x="401" y="500" type="line"/>
      <point x="401" y="148" type="line" smooth="yes"/>
      <point x="401" y="82.3498"/>
      <point x="345.932" y="30"/>
      <point x="275" y="30" type="qcurve" smooth="yes"/>
      <point x="244" y="30" type="line" smooth="yes"/>
      <point x="173.068" y="30"/>
      <point x="118" y="82.3498"/>
      <point x="118" y="148" type="qcurve" smooth="yes"/>
      <point x="118" y="912" type="line" smooth="yes"/>
      <point x="118" y="976.896"/>
      <point x="173.068" y="1030"/>
      <point x="244" y="1030" type="qcurve" smooth="yes"/>
      <point x="275" y="1030" type="line" smooth="yes"/>
      <point x="345.932" y="1030"/>
      <point x="401" y="976.896"/>
      <point x="401" y="912" type="qcurve" smooth="yes"/>
      <point x="401" y="756" type="line"/>
      <point x="438" y="764" type="line"/>
      <point x="438" y="910" type="line" smooth="yes"/>
      <point x="438" y="991.75"/>
      <point x="361" y="1063"/>
      <point x="274" y="1063" type="qcurve" smooth="yes"/>
      <point x="244" y="1063" type="line" smooth="yes"/>
      <point x="157" y="1063"/>
      <point x="81" y="991.75"/>
    </contour>
    <contour>
      <point x="389" y="1450" type="line"/>
      <point x="357" y="1450" type="line"/>
      <point x="260" y="1195" type="line"/>
      <point x="164" y="1450" type="line"/>
      <point x="131" y="1450" type="line"/>
      <point x="245" y="1155" type="line"/>
      <point x="274" y="1155" type="line"/>
    </contour>
  </outline>
</glyph>
<glyph name="iacute.sc" format="2">
  <advance width="227"/>
  <anchor x="114" y="1210" name="top"/>
  <anchor x="114" y="-150" name="bottom"/>
  <anchor x="131" y="0" name="ogonek"/>
  <outline>
    <contour>
      <point x="95" y="0" type="line"/>
      <point x="132" y="0" type="line"/>
      <point x="132" y="1060" type="line"/>
      <point x="95" y="1060" type="line"/>
    </contour>
    <contour>
      <point x="35" y="1145" type="line"/>
      <point x="70" y="1145" type="line"/>
      <point x="286" y="1460" type="line"/>
      <point x="245" y="1460" type="line"/>
    </contour>
  </outline>
</glyph>
<glyph name="ibreve.sc" format="2">
  <advance width="227"/>
  <anchor x="114" y="1493" name="top"/>
  <anchor x="114" y="-150" name="bottom"/>
  <anchor x="131" y="0" name="ogonek"/>
  <outline>
    <contour>
      <point x="95" y="0" type="line"/>
      <point x="132" y="0" type="line"/>
      <point x="132" y="1060" type="line"/>
      <point x="95" y="1060" type="line"/>
    </contour>
    <contour>
      <point x="114" y="1177" type="qcurve" smooth="yes"/>
      <point x="145.125" y="1177"/>
      <point x="187.281" y="1192.75"/>
      <point x="212.969" y="1239.25"/>
      <point x="224" y="1324"/>
      <point x="224" y="1393" type="qcurve"/>
      <point x="194" y="1393" type="line"/>
      <point x="194" y="1330"/>
      <point x="186.156" y="1256.75"/>
      <point x="167.594" y="1219.25"/>
      <point x="136.875" y="1209"/>
      <point x="114" y="1209" type="qcurve" smooth="yes"/>
      <point x="91.125" y="1209"/>
      <point x="60.4062" y="1219.25"/>
      <point x="41.8438" y="1256.75"/>
      <point x="34" y="1330"/>
      <point x="34" y="1393" type="qcurve"/>
      <point x="4" y="1393" type="line"/>
      <point x="4" y="1324"/>
      <point x="15.0312" y="1239.25"/>
      <point x="40.7188" y="1192.75"/>
      <point x="82.875" y="1177"/>
    </contour>
  </outline>
</glyph>
<glyph name="lacute.sc" format="2">
  <advance width="422"/>
  <anchor x="114" y="1210" name="top"/>
  <anchor x="256" y="-150" name="bottom"/>
  <anchor x="15" y="700" name="left"/>
  <anchor x="174" y="1060" name="right"/>
  <anchor x="325" y="560" name="eldot"/>
  <outline>
    <contour>
      <point x="95" y="0" type="line"/>
      <point x="417" y="0" type="line"/>
      <point x="417" y="34" type="line"/>
      <point x="132" y="34" type="line"/>
      <point x="132" y="1060" type="line"/>
      <point x="95" y="1060" type="line"/>
    </contour>
    <contour>
      <point x="35" y="1145" type="line"/>
      <point x="70" y="1145" type="line"/>
      <point x="286" y="1460" type="line"/>
      <point x="245" y="1460" type="line"/>
    </contour>
  </outline>
</glyph>
<glyph name="one.dnom" format="2">
  <advance width="232"/>
  <outline>
    <contour>
      <point x="92" y="0" type="line"/>
      <point x="126" y="0" type="line"/>
      <point x="126" y="789" type="line"/>
      <point x="22" y="766" type="line"/>
      <point x="22" y="738" type="line"/>
      <point x="92" y="749" type="line"/>
    </contour>
  </outline>
  <guideline angle="90" color="0.4,0.4,0.4,1" name="halfwidth" x="116" y="0"/>
</glyph>
<glyph name="one.numr" format="2">
  <advance width="232"/>
  <outline>
    <contour>
      <point x="92" y="614" type="line"/>
      <point x="126" y="614" type="line"/>
      <point x="126" y="1403" type="line"/>
      <point x="22" y="1380" type="line"/>
      <point x="22" y="1352" type="line"/>
      <point x="92" y="1363" type="line"/>
    </contour>
  </outline>
  <guideline angle="90" color="0.4,0.4,0.4,1" name="halfwidth" x="116" y="0"/>
</glyph>
<glyph name="one.tnum" format="2">
  <advance width="520"/>
  <outline>
    <contour>
      <point x="74" y="1367" type="line"/>
      <point x="74" y="1331" type="line"/>
      <point x="214" y="1360" type="line"/>
      <point x="214" y="36" type="line"/>
      <point x="50" y="36" type="line"/>
      <point x="50" y="0" type="line"/>
      <point x="402" y="0" type="line"/>
      <point x="402" y="36" type="line"/>
      <point x="254" y="36" type="line"/>
      <point x="254" y="1408" type="line"/>
    </contour>
  </outline>
  <guideline angle="90" color="0.4,0.4,0.4,1" name="halfwidth" x="260" y="0"/>
</glyph>
<glyph name="parenright.case" format="2">
  <advance width="322"/>
  <outline>
    <contour>
      <point x="4" y="1552" type="line"/>
      <point x="53.875" y="1485.25"/>
      <point x="135.719" y="1296.22"/>
      <point x="194.031" y="1072.53"/>
      <point x="226" y="824.625"/>
      <point x="226" y="699" type="qcurve" smooth="yes"/>
      <point x="226" y="573.375"/>
      <point x="194.031" y="326.094"/>
      <point x="135.719" y="103.156"/>
      <point x="53.875" y="-85.25"/>
      <point x="4" y="-152" type="qcurve"/>
      <point x="38" y="-152" type="line"/>
      <point x="89.75" y="-80"/>
      <point x="172.688" y="112.531"/>
      <point x="230.812" y="334.719"/>
      <point x="262" y="577.125"/>
      <point x="262" y="699" type="qcurve" smooth="yes"/>
      <point x="262" y="944.245"/>
      <point x="142.135" y="1407.12"/>
      <point x="38" y="1552" type="qcurve"/>
    </contour>
  </outline>
</glyph>
<glyph name="question.sc" format="2">
  <advance width="435"/>
  <outline>
    <contour>
      <point x="177" y="254" type="line"/>
      <point x="214" y="254" type="line"/>
      <point x="214" y="492" type="line"/>
      <point x="214" y="492"/>
      <point x="214" y="492"/>
      <point x="214" y="492" type="qcurve"/>
      <point x="250" y="494" type="line"/>
      <point x="285.466" y="497.018"/>
      <point x="359" y="564.068"/>
      <point x="359" y="635" type="qcurve" smooth="yes"/>
      <point x="359" y="936" type="line" smooth="yes"/>
      <point x="359" y="1004.67"/>
      <point x="292.478" y="1063"/>
      <point x="214" y="1063" type="qcurve" smooth="yes"/>
      <point x="193" y="1063" type="line" smooth="yes"/>
      <point x="114.522" y="1063"/>
      <point x="47" y="1003.42"/>
      <point x="47" y="934" type="qcurve" smooth="yes"/>
      <point x="47" y="768" type="line"/>
      <point x="84" y="761" type="line"/>
      <point x="84" y="934" type="line" smooth="yes"/>
      <point x="84" y="986.822"/>
      <point x="133.387" y="1030"/>
      <point x="193" y="1030" type="qcurve" smooth="yes"/>
      <point x="215" y="1030" type="line" smooth="yes"/>
      <point x="274.613" y="1030"/>
      <point x="322" y="987.313"/>
      <point x="322" y="936" type="qcurve" smooth="yes"/>
      <point x="322" y="634" type="line" smooth="yes"/>
      <point x="322" y="586.46"/>
      <point x="274.276" y="528.018"/>
      <point x="229" y="525" type="qcurve" smooth="yes"/>
      <point x="179" y="521" type="line"/>
      <point x="179" y="521"/>
      <point x="177" y="521"/>
      <point x="177" y="521" type="qcurve"/>
    </contour>
    <contour>
      <point x="158" y="22" type="line" smooth="yes"/>
      <point x="158" y="3.135"/>
      <point x="164.89" y="-4"/>
      <point x="183" y="-4" type="qcurve" smooth="yes"/>
      <point x="206" y="-4" type="line" smooth="yes"/>
      <point x="224.865" y="-4"/>
      <point x="232" y="3.135"/>
      <point x="232" y="22" type="qcurve" smooth="yes"/>
      <point x="232" y="64" type="line" smooth="yes"/>
      <point x="232" y="82.865"/>
      <point x="224.865" y="90"/>
      <point x="206" y="90" type="qcurve" smooth="yes"/>
      <point x="184" y="90" type="line" smooth="yes"/>
      <point x="165.135" y="90"/>
      <point x="158" y="82.865"/>
      <point x="158" y="64" type="qcurve" smooth="yes"/>
    </contour>
  </outline>
</glyph>
<glyph name="quotedbl.sc" format="2">
  <advance width="335"/>
  <outline>
    <contour>
      <point x="85" y="696" type="line"/>
      <point x="95" y="565" type="line"/>
      <point x="115" y="565" type="line"/>
      <point x="125" y="696" type="line"/>
      <point x="125" y="1093" type="line" smooth="yes"/>
      <point x="125" y="1105.07"/>
      <point x="118.828" y="1111"/>
      <point x="106" y="1111" type="qcurve" smooth="yes"/>
      <point x="104" y="1111" type="line" smooth="yes"/>
      <point x="91.1718" y="1111"/>
      <point x="85" y="1105.07"/>
      <point x="85" y="1093" type="qcurve" smooth="yes"/>
    </contour>
    <contour>
      <point x="210" y="696" type="line"/>
      <point x="220" y="565" type="line"/>
      <point x="240" y="565" type="line"/>
      <point x="250" y="696" type="line"/>
      <point x="250" y="1093" type="line" smooth="yes"/>
      <point x="250" y="1105.07"/>
      <point x="243.828" y="1111"/>
      <point x="231" y="1111" type="qcurve" smooth="yes"/>
      <point x="229" y="1111" type="line" smooth="yes"/>
      <point x="216.172" y="1111"/>
      <point x="210" y="1105.07"/>
      <point x="210" y="1093" type="qcurve" smooth="yes"/>
    </contour>
  </outline>
</glyph>
<glyph name="quoteright.sc" format="2">
  <advance width="244"/>
  <outline>
    <contour>
      <point x="109" y="914" type="line"/>
      <point x="151" y="1015" type="line"/>
      <point x="155.528" y="1024.81"/>
      <point x="159" y="1039.44"/>
      <point x="159" y="1050" type="qcurve" smooth="yes"/>
      <point x="159" y="1092" type="line" smooth="yes"/>
      <point x="159" y="1110.87"/>
      <point x="151.865" y="1118"/>
      <point x="133" y="1118" type="qcurve" smooth="yes"/>
      <point x="111" y="1118" type="line" smooth="yes"/>
      <point x="92.25" y="1118"/>
      <point x="85" y="1110.75"/>
      <point x="85" y="1092" type="qcurve" smooth="yes"/>
      <point x="85" y="1050" type="line" smooth="yes"/>
      <point x="85" y="1033.4"/>
      <point x="90.4172" y="1024"/>
      <point x="104" y="1024" type="qcurve" smooth="yes"/>
      <point x="109" y="1024" type="line"/>
      <point x="85" y="920" type="line"/>
    </contour>
  </outline>
</glyph>
<glyph name="quotesingle.sc" format="2">
  <advance width="210"/>
  <outline>
    <contour>
      <point x="85" y="696" type="line"/>
      <point x="95" y="565" type="line"/>
      <point x="115" y="565" type="line"/>
      <point x="125" y="696" type="line"/>
      <point x="125" y="1093" type="line" smooth="yes"/>
      <point x="125" y="1105.07"/>
      <point x="118.828" y="1111"/>
      <point x="106" y="1111" type="qcurve" smooth="yes"/>
      <point x="104" y="1111" type="line" smooth="yes"/>
      <point x="91.1718" y="1111"/>
      <point x="85" y="1105.07"/>
      <point x="85" y="1093" type="qcurve" smooth="yes"/>
    </contour>
  </outline>
</glyph>
<glyph name="six.numr" format="2">
  <advance width="348"/>
  <outline>
    <contour>
      <point x="174" y="614" type="qcurve" smooth="yes"/>
      <point x="212.625" y="614"/>
      <point x="259.156" y="637"/>
      <point x="284.094" y="688"/>
      <point x="292" y="769.5"/>
      <point x="292" y="828" type="qcurve" smooth="yes"/>
      <point x="292" y="869.25"/>
      <point x="285.031" y="943.625"/>
      <point x="261.219" y="999.875"/>
      <point x="215.625" y="1033"/>
      <point x="177" y="1033" type="qcurve" smooth="yes"/>
      <point x="151.344" y="1033"/>
      <point x="105.202" y="1016.36"/>
      <point x="72" y="999" type="qcurve"/>
      <point x="72" y="966" type="line"/>
      <point x="89.625" y="978"/>
      <point x="119.75" y="992.562"/>
      <point x="145.25" y="1000.44"/>
      <point x="166.375" y="1003"/>
      <point x="175" y="1003" type="qcurve" smooth="yes"/>
      <point x="201.25" y="1003"/>
      <point x="233.75" y="979.25"/>
      <point x="251.75" y="934.25"/>
      <point x="258" y="869.25"/>
      <point x="258" y="828" type="qcurve" smooth="yes"/>
      <point x="258" y="775.875"/>
      <point x="252.344" y="705.344"/>
      <point x="234.906" y="662.406"/>
      <point x="202.625" y="644"/>
      <point x="176" y="644" type="qcurve" smooth="yes"/>
      <point x="146.75" y="644"/>
      <point x="112.562" y="669.25"/>
      <point x="94.9375" y="735.25"/>
      <point x="90" y="849.75"/>
      <point x="90" y="939" type="qcurve" smooth="yes"/>
      <point x="90" y="1020"/>
      <point x="96.9375" y="1176.81"/>
      <point x="120.562" y="1300.19"/>
      <point x="165.75" y="1376"/>
      <point x="204" y="1376" type="qcurve" smooth="yes"/>
      <point x="208.875" y="1376"/>
      <point x="219.969" y="1375.16"/>
      <point x="231.781" y="1373.09"/>
      <point x="244" y="1369.62"/>
      <point x="250" y="1367" type="qcurve"/>
      <point x="239" y="1400" type="line"/>
      <point x="227.681" y="1403.77"/>
      <point x="208.055" y="1406"/>
      <point x="199" y="1406" type="qcurve" smooth="yes"/>
      <point x="154.375" y="1406"/>
      <point x="98.5312" y="1330.47"/>
      <point x="67.2188" y="1202.78"/>
      <point x="56" y="1034.62"/>
      <point x="56" y="942" type="qcurve" smooth="yes"/>
      <point x="56" y="850.5"/>
      <point x="60.8125" y="725.125"/>
      <point x="83.6875" y="647.875"/>
      <point x="131.25" y="614"/>
    </contour>
  </outline>
</glyph>
<glyph name="six.sinf" format="2">
  <advance width="348"/>
  <outline>
    <contour>
      <point x="174" y="-300" type="qcurve" smooth="yes"/>
      <point x="212.625" y="-300"/>
      <point x="259.156" y="-277"/>
      <point x="284.094" y="-226"/>
      <point x="292" y="-144.5"/>
      <point x="292" y="-86" type="qcurve" smooth="yes"/>
      <point x="292" y="-44.75"/>
      <point x="285.031" y="29.625"/>
      <point x="261.219" y="85.875"/>
      <point x="215.625" y="119"/>
      <point x="177" y="119" type="qcurve" smooth="yes"/>
      <point x="151.344" y="119"/>
      <point x="105.202" y="102.356"/>
      <point x="72" y="85" type="qcurve"/>
      <point x="72" y="52" type="line"/>
      <point x="89.625" y="64"/>
      <point x="119.75" y="78.5625"/>
      <point x="145.25" y="86.4375"/>
      <point x="166.375" y="89"/>
      <point x="175" y="89" type="qcurve" smooth="yes"/>
      <point x="201.25" y="89"/>
      <point x="233.75" y="65.25"/>
      <point x="251.75" y="20.25"/>
      <point x="258" y="-44.75"/>
      <point x="258" y="-86" type="qcurve" smooth="yes"/>
      <point x="258" y="-138.125"/>
      <point x="252.344" y="-208.656"/>
      <point x="234.906" y="-251.594"/>
      <point x="202.625" y="-270"/>
      <point x="176" y="-270" type="qcurve" smooth="yes"/>
      <point x="146.75" y="-270"/>
      <point x="112.562" y="-244.75"/>
      <point x="94.9375" y="-178.75"/>
      <point x="90" y="-64.25"/>
      <point x="90" y="25" type="qcurve" smooth="yes"/>
      <point x="90" y="106"/>
      <point x="96.9375" y="262.812"/>
      <point x="120.562" y="386.188"/>
      <point x="165.75" y="462"/>
      <point x="204" y="462" type="qcurve" smooth="yes"/>
      <point x="208.875" y="462"/>
      <point x="219.969" y="461.156"/>
      <point x="231.781" y="459.094"/>
      <point x="244" y="455.625"/>
      <point x="250" y="453" type="qcurve"/>
      <point x="239" y="486" type="line"/>
      <point x="227.681" y="489.773"/>
      <point x="208.055" y="492"/>
      <point x="199" y="492" type="qcurve" smooth="yes"/>
      <point x="154.375" y="492"/>
      <point x="98.5312" y="416.469"/>
      <point x="67.2188" y="288.781"/>
      <point x="56" y="120.625"/>
      <point x="56" y="28" type="qcurve" smooth="yes"/>
      <point x="56" y="-63.5"/>
      <point x="60.8125" y="-188.875"/>
      <point x="83.6875" y="-266.125"/>
      <point x="131.25" y="-300"/>
    </contour>
  </outline>
</glyph>
<glyph name="three.tnum" format="2">
  <advance width="520"/>
  <outline>
    <contour>
      <point x="95" y="398" type="line"/>
      <point x="95" y="195" type="line" smooth="yes"/>
      <point x="95" y="72.75"/>
      <point x="190.25" y="-4"/>
      <point x="266" y="-4" type="qcurve" smooth="yes"/>
      <point x="307" y="-4" type="line" smooth="yes"/>
      <point x="344.875" y="-4"/>
      <point x="407.781" y="12.3438"/>
      <point x="452.969" y="56.4062"/>
      <point x="478" y="133.875"/>
      <point x="478" y="195" type="qcurve" smooth="yes"/>
      <point x="478" y="582" type="line" smooth="yes"/>
      <point x="478" y="655.951"/>
      <point x="431.386" y="709.736"/>
      <point x="368" y="712" type="qcurve"/>
      <point x="429.877" y="715.018"/>
      <point x="474" y="784.675"/>
      <point x="474" y="879" type="qcurve" smooth="yes"/>
      <point x="474" y="1213" type="line" smooth="yes"/>
      <point x="474" y="1260.62"/>
      <point x="458.344" y="1332.22"/>
      <point x="421.406" y="1380.03"/>
      <point x="360.375" y="1404"/>
      <point x="315" y="1404" type="qcurve" smooth="yes"/>
      <point x="270" y="1404" type="line" smooth="yes"/>
      <point x="224.625" y="1404"/>
      <point x="161.719" y="1380.06"/>
      <point x="122.531" y="1332.44"/>
      <point x="105" y="1261.25"/>
      <point x="105" y="1214" type="qcurve" smooth="yes"/>
      <point x="105" y="978" type="line"/>
      <point x="145" y="970" type="line"/>
      <point x="145" y="1216" type="line" smooth="yes"/>
      <point x="145" y="1294.48"/>
      <point x="196.804" y="1368"/>
      <point x="270" y="1368" type="qcurve" smooth="yes"/>
      <point x="315" y="1368" type="line" smooth="yes"/>
      <point x="388.196" y="1368"/>
      <point x="434" y="1294.23"/>
      <point x="434" y="1215" type="qcurve" smooth="yes"/>
      <point x="434" y="879" type="line" smooth="yes"/>
      <point x="434" y="787.693"/>
      <point x="391.877" y="728"/>
      <point x="330" y="728" type="qcurve" smooth="yes"/>
      <point x="228" y="728" type="line"/>
      <point x="228" y="692" type="line"/>
      <point x="348" y="692" type="line" smooth="yes"/>
      <point x="399.313" y="692"/>
      <point x="438" y="645.386"/>
      <point x="438" y="582" type="qcurve" smooth="yes"/>
      <point x="438" y="193" type="line" smooth="yes"/>
      <point x="438" y="88.1106"/>
      <point x="365.859" y="32"/>
      <point x="307" y="32" type="qcurve" smooth="yes"/>
      <point x="266" y="32" type="line" smooth="yes"/>
      <point x="207.141" y="32"/>
      <point x="135" y="88.1106"/>
      <point x="135" y="193" type="qcurve" smooth="yes"/>
      <point x="135" y="406" type="line"/>
    </contour>
  </outline>
</glyph>
<glyph name="tildecomb.case" format="2">
  <anchor x="0" y="1150" name="_top"/>
  <anchor x="0" y="1276" name="top"/>
  <outline>
    <contour>
      <point x="-128" y="1154" type="qcurve"/>
      <point x="-95" y="1147" type="line"/>
      <point x="-88.9632" y="1173.41"/>
      <point x="-72.3558" y="1195"/>
      <point x="-55" y="1195" type="qcurve" smooth="yes"/>
      <point x="-42.25" y="1195"/>
      <point x="-19.0938" y="1180"/>
      <point x="5.84375" y="1162"/>
      <point x="34.625" y="1147"/>
      <point x="53" y="1147" type="qcurve" smooth="yes"/>
      <point x="66.125" y="1147"/>
      <point x="89.75" y="1154.16"/>
      <point x="109.25" y="1171.59"/>
      <point x="123.875" y="1200.88"/>
      <point x="128" y="1223" type="qcurve"/>
      <point x="95" y="1230" type="line"/>
      <point x="88.9632" y="1203.59"/>
      <point x="72.3558" y="1182"/>
      <point x="55" y="1182" type="qcurve" smooth="yes"/>
      <point x="42.25" y="1182"/>
      <point x="19.0938" y="1197"/>
      <point x="-5.84375" y="1215"/>
      <point x="-34.625" y="1230"/>
      <point x="-53" y="1230" type="qcurve" smooth="yes"/>
      <point x="-66.125" y="1230"/>
      <point x="-89.75" y="1222.84"/>
      <point x="-109.25" y="1205.41"/>
      <point x="-123.875" y="1176.12"/>
    </contour>
  </outline>
</glyph>
<glyph name="uni0137.sc" format="2">
  <advance width="472"/>
  <anchor x="334" y="1210" name="top"/>
  <anchor x="124" y="-150" name="bottom"/>
  <outline>
    <contour>
      <point x="95" y="0" type="line"/>
      <point x="132" y="0" type="line"/>
      <point x="132" y="524" type="line"/>
      <point x="130" y="524" type="line"/>
      <point x="429" y="0" type="line"/>
      <point x="472" y="0" type="line"/>
      <point x="151" y="558" type="line"/>
      <point x="151" y="523" type="line"/>
      <point x="444" y="1060" type="line"/>
      <point x="407" y="1060" type="line"/>
      <point x="129" y="553" type="line"/>
      <point x="132" y="553" type="line"/>
      <point x="132" y="1060" type="line"/>
      <point x="95" y="1060" type="line"/>
    </contour>
    <contour>
      <point x="113" y="-230" type="line"/>
      <point x="151" y="-159" type="line"/>
      <point x="152.509" y="-155.982"/>
      <point x="154" y="-147.546"/>
      <point x="154" y="-140" type="qcurve" smooth="yes"/>
      <point x="154" y="-125" type="line" smooth="yes"/>
      <point x="154" y="-109.153"/>
      <point x="147.847" y="-103"/>
      <point x="132" y="-103" type="qcurve" smooth="yes"/>
      <point x="116" y="-103" type="line" smooth="yes"/>
      <point x="100.153" y="-103"/>
      <point x="94" y="-109.153"/>
      <point x="94" y="-125" type="qcurve" smooth="yes"/>
      <point x="94" y="-140" type="line" smooth="yes"/>
      <point x="94" y="-155.847"/>
      <point x="100.153" y="-162"/>
      <point x="116" y="-162" type="qcurve" smooth="yes"/>
      <point x="119" y="-162" type="line"/>
      <point x="101" y="-225" type="line"/>
    </contour>
  </outline>
</glyph>
<glyph name="uni013C.sc" format="2">
  <advance width="422"/>
  <anchor x="114" y="1210" name="top"/>
  <anchor x="256" y="-150" name="bottom"/>
  <anchor x="15" y="700" name="left"/>
  <anchor x="174" y="1060" name="right"/>
  <anchor x="325" y="560" name="eldot"/>
  <outline>
    <contour>
      <point x="95" y="0" type="line"/>
      <point x="417" y="0" type="line"/>
      <point x="417" y="34" type="line"/>
      <point x="132" y="34" type="line"/>
      <point x="132" y="1060" type="line"/>
      <point x="95" y="1060" type="line"/>
    </contour>
    <contour>
      <point x="245" y="-230" type="line"/>
      <point x="283" y="-159" type="line"/>
      <point x="284.509" y="-155.982"/>
      <point x="286" y="-147.546"/>
      <point x="286" y="-140" type="qcurve" smooth="yes"/>
      <point x="286" y="-125" type="line" smooth="yes"/>
      <point x="286" y="-109.153"/>
      <point x="279.847" y="-103"/>
      <point x="264" y="-103" type="qcurve" smooth="yes"/>
      <point x="248" y="-103" type="line" smooth="yes"/>
      <point x="232.153" y="-103"/>
      <point x="226" y="-109.153"/>
      <point x="226" y="-125" type="qcurve" smooth="yes"/>
      <point x="226" y="-140" type="line" smooth="yes"/>
      <point x="226" y="-155.847"/>
      <point x="232.153" y="-162"/>
      <point x="248" y="-162" type="qcurve" smooth="yes"/>
      <point x="251" y="-162" type="line"/>
      <point x="233" y="-225" type="line"/>
    </contour>
  </outline>
</glyph>
<glyph name="uni0146.sc" format="2">
  <advance width="559"/>
  <anchor x="280" y="1210" name="top"/>
  <anchor x="280" y="-150" name="bottom"/>
  <outline>
    <contour>
      <point x="95" y="0" type="line"/>
      <point x="128" y="0" type="line"/>
      <point x="128" y="938" type="line"/>
      <point x="432" y="0" type="line"/>
      <point x="464" y="0" type="line"/>
      <point x="464" y="1060" type="line"/>
      <point x="431" y="1060" type="line"/>
      <point x="431" y="122" type="line"/>
      <point x="127" y="1060" type="line"/>
      <point x="95" y="1060" type="line"/>
    </contour>
    <contour>
      <point x="269" y="-230" type="line"/>
      <point x="307" y="-159" type="line"/>
      <point x="308.509" y="-155.982"/>
      <point x="310" y="-147.546"/>
      <point x="310" y="-140" type="qcurve" smooth="yes"/>
      <point x="310" y="-125" type="line" smooth="yes"/>
      <point x="310" y="-109.153"/>
      <point x="303.847" y="-103"/>
      <point x="288" y="-103" type="qcurve" smooth="yes"/>
      <point x="272" y="-103" type="line" smooth="yes"/>
      <point x="256.153" y="-103"/>
      <point x="250" y="-109.153"/>
      <point x="250" y="-125" type="qcurve" smooth="yes"/>
      <point x="250" y="-140" type="line" smooth="yes"/>
      <point x="250" y="-155.847"/>
      <point x="256.153" y="-162"/>
      <point x="272" y="-162" type="qcurve" smooth="yes"/>
      <point x="275" y="-162" type="line"/>
      <point x="257" y="-225" type="line"/>
    </contour>
  </outline>
</glyph>
<glyph name="uni01B4.sc" format="2">
  <advance width="445"/>
  <anchor x="211" y="1210" name="top"/>
  <anchor x="209" y="-150" name="bottom"/>
  <outline>
    <contour>
      <point x="190" y="0" type="line"/>
      <point x="227" y="0" type="line"/>
      <point x="227" y="471" type="line"/>
      <point x="367" y="967" type="line" smooth="yes"/>
      <point x="374.546" y="992.656"/>
      <point x="396.098" y="1029"/>
      <point x="421" y="1029" type="qcurve" smooth="yes"/>
      <point x="437" y="1029" type="line"/>
      <point x="445" y="1060" type="line"/>
      <point x="420" y="1060" type="line" smooth="yes"/>
      <point x="383.779" y="1060"/>
      <point x="344.81" y="1014.22"/>
      <point x="335" y="978" type="qcurve" smooth="yes"/>
      <point x="211" y="529" type="line"/>
      <point x="39" y="1060" type="line"/>
      <point x="0" y="1060" type="line"/>
      <point x="190" y="474" type="line"/>
    </contour>
  </outline>
  <guideline angle="90" color="1,0,0,1" x="269" y="0"/>
  <guideline angle="90" color="1,0,0,1" x="208.5" y="0"/>
  <guideline angle="90" color="1,0,0,1" x="269" y="0"/>
  <guideline angle="90" color="1,0,0,1" x="208.5" y="0"/>
</glyph>
<glyph name="uni0209.sc" format="2">
  <advance width="227"/>
  <anchor x="114" y="1210" name="top"/>
  <anchor x="114" y="-150" name="bottom"/>
  <anchor x="131" y="0" name="ogonek"/>
  <outline>
    <contour>
      <point x="95" y="0" type="line"/>
      <point x="132" y="0" type="line"/>
      <point x="132" y="1060" type="line"/>
      <point x="95" y="1060" type="line"/>
    </contour>
    <contour>
      <point x="273" y="1145" type="line"/>
      <point x="63" y="1460" type="line"/>
      <point x="22" y="1460" type="line"/>
      <point x="238" y="1145" type="line"/>
    </contour>
    <contour>
      <point x="104" y="1145" type="line"/>
      <point x="-106" y="1460" type="line"/>
      <point x="-147" y="1460" type="line"/>
      <point x="69" y="1145" type="line"/>
    </contour>
  </outline>
</glyph>
<glyph name="uni0302_tildecomb" format="2">
  <anchor x="0" y="1150" name="_top"/>
  <outline>
    <contour>
      <point x="-129" y="1095" type="line"/>
      <point x="-97" y="1095" type="line"/>
      <point x="0" y="1350" type="line"/>
      <point x="96" y="1095" type="line"/>
      <point x="129" y="1095" type="line"/>
      <point x="15" y="1390" type="line"/>
      <point x="-14" y="1390" type="line"/>
    </contour>
    <contour>
      <point x="-124" y="1454" type="qcurve"/>
      <point x="-95" y="1448" type="line"/>
      <point x="-88.9632" y="1469.13"/>
      <point x="-68.8466" y="1489"/>
      <point x="-53" y="1489" type="qcurve" smooth="yes"/>
      <point x="-39.125" y="1489"/>
      <point x="-16.7812" y="1476.19"/>
      <point x="7.03125" y="1460.81"/>
      <point x="35.75" y="1448"/>
      <point x="56" y="1448" type="qcurve" smooth="yes"/>
      <point x="84.6748" y="1448"/>
      <point x="117.209" y="1480.29"/>
      <point x="124" y="1515" type="qcurve"/>
      <point x="95" y="1521" type="line"/>
      <point x="89.7178" y="1498.36"/>
      <point x="72.8466" y="1480"/>
      <point x="57" y="1480" type="qcurve" smooth="yes"/>
      <point x="41.625" y="1480"/>
      <point x="17.7812" y="1492.81"/>
      <point x="-6.03125" y="1508.19"/>
      <point x="-33.25" y="1521"/>
      <point x="-52" y="1521" type="qcurve" smooth="yes"/>
      <point x="-80.6748" y="1521"/>
      <point x="-117.209" y="1487.2"/>
    </contour>
  </outline>
</glyph>
<glyph name="uni0304.case" format="2">
  <anchor x="0" y="1150" name="_top"/>
  <anchor x="0" y="1315" name="top"/>
  <outline>
    <contour>
      <point x="-134" y="1179" type="line"/>
      <point x="134" y="1179" type="line"/>
      <point x="134" y="1215" type="line"/>
      <point x="-134" y="1215" type="line"/>
    </contour>
  </outline>
</glyph>
<glyph name="uni030B.case" format="2">
  <anchor x="0" y="1150" name="_top"/>
  <anchor x="50" y="1085" name="topright"/>
  <outline>
    <contour>
      <point x="-172" y="1085" type="line"/>
      <point x="-132" y="1085" type="line"/>
      <point x="84" y="1400" type="line"/>
      <point x="38" y="1400" type="line"/>
    </contour>
    <contour>
      <point x="10" y="1085" type="line"/>
      <point x="50" y="1085" type="line"/>
      <point x="266" y="1400" type="line"/>
      <point x="220" y="1400" type="line"/>
    </contour>
  </outline>
</glyph>
<glyph name="uni030C.case" format="2">
  <anchor x="0" y="1150" name="_top"/>
  <anchor x="0" y="1480" name="top"/>
  <anchor x="-142" y="1300" name="topright"/>
  <anchor x="-2" y="935" name="_bottom"/>
  <outline>
    <contour>
      <point x="139" y="1400" type="line"/>
      <point x="102" y="1400" type="line"/>
      <point x="0" y="1129" type="line"/>
      <point x="-103" y="1400" type="line"/>
      <point x="-142" y="1400" type="line"/>
      <point x="-18" y="1085" type="line"/>
      <point x="17" y="1085" type="line"/>
    </contour>
  </outline>
</glyph>
<glyph name="uni0433.loclBGR" format="2">
  <advance width="462"/>
  <anchor x="250" y="1150" name="top"/>
  <anchor x="250" y="-150" name="bottom"/>
  <outline>
    <contour>
      <point x="213" y="-4" type="qcurve" smooth="yes"/>
      <point x="249" y="-4" type="line" smooth="yes"/>
      <point x="319.932" y="-4"/>
      <point x="394" y="70.0676"/>
      <point x="394" y="141" type="qcurve" smooth="yes"/>
      <point x="394" y="300" type="line"/>
      <point x="358" y="308" type="line"/>
      <point x="358" y="144" type="line" smooth="yes"/>
      <point x="358" y="87.405"/>
      <point x="300.84" y="28"/>
      <point x="245" y="28" type="qcurve" smooth="yes"/>
      <point x="217" y="28" type="line" smooth="yes"/>
      <point x="161.16" y="28"/>
      <point x="104" y="87.405"/>
      <point x="104" y="144" type="qcurve" smooth="yes"/>
      <point x="104" y="370" type="line" smooth="yes"/>
      <point x="104" y="426.595"/>
      <point x="161.16" y="487"/>
      <point x="217" y="487" type="qcurve" smooth="yes"/>
      <point x="243" y="487" type="line" smooth="yes"/>
      <point x="313.932" y="487"/>
      <point x="388" y="561.068"/>
      <point x="388" y="632" type="qcurve" smooth="yes"/>
      <point x="388" y="859" type="line" smooth="yes"/>
      <point x="388" y="929.932"/>
      <point x="313.932" y="1004"/>
      <point x="243" y="1004" type="qcurve" smooth="yes"/>
      <point x="215" y="1004" type="line" smooth="yes"/>
      <point x="144.068" y="1004"/>
      <point x="70" y="929.932"/>
      <point x="70" y="859" type="qcurve" smooth="yes"/>
      <point x="70" y="714" type="line"/>
      <point x="106" y="706" type="line"/>
      <point x="106" y="856" type="line" smooth="yes"/>
      <point x="106" y="912.595"/>
      <point x="163.16" y="972"/>
      <point x="219" y="972" type="qcurve" smooth="yes"/>
      <point x="239" y="972" type="line" smooth="yes"/>
      <point x="294.84" y="972"/>
      <point x="352" y="912.595"/>
      <point x="352" y="856" type="qcurve" smooth="yes"/>
      <point x="352" y="636" type="line" smooth="yes"/>
      <point x="352" y="579.405"/>
      <point x="294.84" y="519"/>
      <point x="239" y="519" type="qcurve" smooth="yes"/>
      <point x="213" y="519" type="line" smooth="yes"/>
      <point x="142.068" y="519"/>
      <point x="68" y="444.932"/>
      <point x="68" y="374" type="qcurve" smooth="yes"/>
      <point x="68" y="141" type="line" smooth="yes"/>
      <point x="68" y="70.0676"/>
      <point x="142.068" y="-4"/>
    </contour>
  </outline>
</glyph>
<glyph name="uni0438.loclBGR" format="2">
  <advance width="485"/>
  <anchor x="243" y="1150" name="top"/>
  <anchor x="252" y="-150" name="bottom"/>
  <outline>
    <contour>
      <point x="221" y="0" type="qcurve" smooth="yes"/>
      <point x="297" y="0" type="line" smooth="yes"/>
      <point x="322.656" y="0"/>
      <point x="357.153" y="8.3804"/>
      <point x="373" y="28" type="qcurve"/>
      <point x="373" y="0" type="line"/>
      <point x="409" y="0" type="line"/>
      <point x="409" y="1000" type="line"/>
      <point x="373" y="1000" type="line"/>
      <point x="373" y="32" type="line"/>
      <point x="221" y="32" type="line" smooth="yes"/>
      <point x="166.669" y="32"/>
      <point x="112" y="92.1596"/>
      <point x="112" y="148" type="qcurve" smooth="yes"/>
      <point x="112" y="1000" type="line"/>
      <point x="76" y="1000" type="line"/>
      <point x="76" y="145" type="line" smooth="yes"/>
      <point x="76" y="74.0676"/>
      <point x="150.068" y="0"/>
    </contour>
  </outline>
</glyph>
<glyph name="uni043D.sc" format="2">
  <advance width="541"/>
  <anchor x="271" y="1210" name="top"/>
  <anchor x="271" y="-150" name="bottom"/>
  <outline>
    <contour>
      <point x="95" y="0" type="line"/>
      <point x="132" y="0" type="line"/>
      <point x="132" y="536" type="line"/>
      <point x="409" y="536" type="line"/>
      <point x="409" y="0" type="line"/>
      <point x="446" y="0" type="line"/>
      <point x="446" y="1060" type="line"/>
      <point x="409" y="1060" type="line"/>
      <point x="409" y="569" type="line"/>
      <point x="132" y="569" type="line"/>
      <point x="132" y="1060" type="line"/>
      <point x="95" y="1060" type="line"/>
    </contour>
  </outline>
</glyph>
<glyph name="uni0446.loclBGR" format="2">
  <advance width="462"/>
  <outline>
    <contour>
      <point x="373" y="0" type="line"/>
      <point x="443" y="0" type="line"/>
      <point x="443" y="-240" type="line"/>
      <point x="478" y="-240" type="line"/>
      <point x="478" y="32" type="line"/>
      <point x="409" y="32" type="line"/>
    </contour>
    <contour>
      <point x="221" y="0" type="qcurve" smooth="yes"/>
      <point x="297" y="0" type="line" smooth="yes"/>
      <point x="322.656" y="0"/>
      <point x="357.153" y="8.3804"/>
      <point x="373" y="28" type="qcurve"/>
      <point x="373" y="0" type="line"/>
      <point x="409" y="0" type="line"/>
      <point x="409" y="1000" type="line"/>
      <point x="373" y="1000" type="line"/>
      <point x="373" y="32" type="line"/>
      <point x="221" y="32" type="line" smooth="yes"/>
      <point x="166.669" y="32"/>
      <point x="112" y="92.1596"/>
      <point x="112" y="148" type="qcurve" smooth="yes"/>
      <point x="112" y="1000" type="line"/>
      <point x="76" y="1000" type="line"/>
      <point x="76" y="145" type="line" smooth="yes"/>
      <point x="76" y="74.0676"/>
      <point x="150.068" y="0"/>
    </contour>
  </outline>
</glyph>
<glyph name="uni044E.sc" format="2">
  <advance width="682"/>
  <outline>
    <contour>
      <point x="95" y="0" type="line"/>
      <point x="132" y="0" type="line"/>
      <point x="132" y="536" type="line"/>
      <point x="265" y="536" type="line"/>
      <point x="265" y="150" type="line" smooth="yes"/>
      <point x="265" y="108.75"/>
      <point x="281.531" y="50.625"/>
      <point x="316.219" y="13.875"/>
      <point x="369.875" y="-3"/>
      <point x="407" y="-3" type="qcurve" smooth="yes"/>
      <point x="458" y="-3" type="line" smooth="yes"/>
      <point x="495.5" y="-3"/>
      <point x="549.562" y="13.875"/>
      <point x="584.438" y="50.625"/>
      <point x="601" y="108.75"/>
      <point x="601" y="150" type="qcurve" smooth="yes"/>
      <point x="601" y="910" type="line" smooth="yes"/>
      <point x="601" y="951.25"/>
      <point x="584.438" y="1009.38"/>
      <point x="549.562" y="1046.12"/>
      <point x="495.5" y="1063"/>
      <point x="458" y="1063" type="qcurve" smooth="yes"/>
      <point x="407" y="1063" type="line" smooth="yes"/>
      <point x="369.875" y="1063"/>
      <point x="316.219" y="1046.12"/>
      <point x="281.531" y="1009.38"/>
      <point x="265" y="951.25"/>
      <point x="265" y="910" type="qcurve" smooth="yes"/>
      <point x="265" y="569" type="line"/>
      <point x="132" y="569" type="line"/>
      <point x="132" y="1060" type="line"/>
      <point x="95" y="1060" type="line"/>
    </contour>
    <contour>
      <point x="406" y="30" type="line" smooth="yes"/>
      <point x="347.141" y="30"/>
      <point x="301" y="82.3498"/>
      <point x="301" y="148" type="qcurve" smooth="yes"/>
      <point x="301" y="912" type="line" smooth="yes"/>
      <point x="301" y="977.65"/>
      <point x="347.141" y="1030"/>
      <point x="406" y="1030" type="qcurve" smooth="yes"/>
      <point x="460" y="1030" type="line" smooth="yes"/>
      <point x="518.859" y="1030"/>
      <point x="564" y="977.65"/>
      <point x="564" y="912" type="qcurve" smooth="yes"/>
      <point x="564" y="148" type="line" smooth="yes"/>
      <point x="564" y="82.3498"/>
      <point x="518.859" y="30"/>
      <point x="460" y="30" type="qcurve" smooth="yes"/>
    </contour>
  </outline>
</glyph>
<glyph name="uni046B.sc" format="2">
  <advance width="696"/>
  <outline>
    <contour>
      <point x="95" y="0" type="line"/>
      <point x="132" y="0" type="line"/>
      <point x="132" y="405" type="line" smooth="yes"/>
      <point x="132" y="471.405"/>
      <point x="177.896" y="525"/>
      <point x="236" y="525" type="qcurve" smooth="yes"/>
      <point x="330" y="525" type="line"/>
      <point x="330" y="0" type="line"/>
      <point x="367" y="0" type="line"/>
      <point x="367" y="525" type="line"/>
      <point x="460" y="525" type="line" smooth="yes"/>
      <point x="518.104" y="525"/>
      <point x="564" y="471.405"/>
      <point x="564" y="405" type="qcurve" smooth="yes"/>
      <point x="564" y="0" type="line"/>
      <point x="601" y="0" type="line"/>
      <point x="601" y="405" type="line" smooth="yes"/>
      <point x="601" y="486"/>
      <point x="536.5" y="558"/>
      <point x="463" y="558" type="qcurve" smooth="yes"/>
      <point x="380" y="558" type="line"/>
      <point x="595" y="1043" type="line"/>
      <point x="595" y="1060" type="line"/>
      <point x="102" y="1060" type="line"/>
      <point x="102" y="1043" type="line"/>
      <point x="318" y="558" type="line"/>
      <point x="233" y="558" type="line" smooth="yes"/>
      <point x="159.5" y="558"/>
      <point x="95" y="486"/>
      <point x="95" y="405" type="qcurve" smooth="yes"/>
    </contour>
    <contour>
      <point x="351" y="569" type="line"/>
      <point x="150" y="1027" type="line"/>
      <point x="551" y="1027" type="line"/>
    </contour>
  </outline>
</glyph>
<glyph name="uni0495.sc" format="2">
  <advance width="454"/>
  <outline>
    <contour>
      <point x="95" y="0" type="line"/>
      <point x="132" y="0" type="line"/>
      <point x="132" y="564" type="line"/>
      <point x="293" y="564" type="line" smooth="yes"/>
      <point x="348.84" y="564"/>
      <point x="392" y="510.405"/>
      <point x="392" y="444" type="qcurve" smooth="yes"/>
      <point x="392" y="-225" type="line" smooth="yes"/>
      <point x="392" y="-291.405"/>
      <point x="348.84" y="-345"/>
      <point x="293" y="-345" type="qcurve" smooth="yes"/>
      <point x="171" y="-345" type="line"/>
      <point x="171" y="-378" type="line"/>
      <point x="286" y="-378" type="line" smooth="yes"/>
      <point x="357.25" y="-378"/>
      <point x="429" y="-298.5"/>
      <point x="429" y="-225" type="qcurve" smooth="yes"/>
      <point x="429" y="444" type="line" smooth="yes"/>
      <point x="429" y="480.75"/>
      <point x="410.375" y="537.75"/>
      <point x="373.625" y="576.75"/>
      <point x="319" y="597"/>
      <point x="283" y="597" type="qcurve" smooth="yes"/>
      <point x="132" y="597" type="line"/>
      <point x="132" y="1027" type="line"/>
      <point x="399" y="1027" type="line"/>
      <point x="399" y="1060" type="line"/>
      <point x="95" y="1060" type="line"/>
    </contour>
  </outline>
</glyph>
<glyph name="uni04A3.sc" format="2">
  <advance width="564"/>
  <outline>
    <contour>
      <point x="95" y="0" type="line"/>
      <point x="132" y="0" type="line"/>
      <point x="132" y="536" type="line"/>
      <point x="409" y="536" type="line"/>
      <point x="409" y="0" type="line" name="ATT"/>
      <point x="441" y="0" type="line"/>
      <point x="441" y="-113" type="line"/>
      <point x="469" y="-113" type="line"/>
      <point x="469" y="30" type="line"/>
      <point x="446" y="30" type="line"/>
      <point x="446" y="1060" type="line"/>
      <point x="409" y="1060" type="line"/>
      <point x="409" y="569" type="line"/>
      <point x="132" y="569" type="line"/>
      <point x="132" y="1060" type="line"/>
      <point x="95" y="1060" type="line"/>
    </contour>
  </outline>
</glyph>
<glyph name="uni04B7.sc" format="2">
  <advance width="545"/>
  <outline>
    <contour>
      <point x="376" y="0" type="line" name="ATT"/>
      <point x="415" y="0" type="line"/>
      <point x="415" y="-240" type="line"/>
      <point x="450" y="-240" type="line"/>
      <point x="450" y="33" type="line"/>
      <point x="413" y="33" type="line"/>
      <point x="413" y="1060" type="line"/>
      <point x="376" y="1060" type="line"/>
      <point x="376" y="486" type="line"/>
      <point x="223" y="486" type="line" smooth="yes"/>
      <point x="161.123" y="486"/>
      <point x="112" y="538.104"/>
      <point x="112" y="603" type="qcurve" smooth="yes"/>
      <point x="112" y="1060" type="line"/>
      <point x="75" y="1060" type="line"/>
      <point x="75" y="606" type="line" smooth="yes"/>
      <point x="75" y="523.5"/>
      <point x="145.25" y="452"/>
      <point x="224" y="452" type="qcurve" smooth="yes"/>
      <point x="376" y="452" type="line"/>
    </contour>
  </outline>
</glyph>
<glyph name="uni04CC.sc" format="2">
  <advance width="508"/>
  <outline>
    <contour>
      <point x="336" y="-240" type="line"/>
      <point x="368" y="-240" type="line"/>
      <point x="369" y="0" type="line"/>
      <point x="413" y="0" type="line" name="ATT"/>
      <point x="413" y="1060" type="line"/>
      <point x="376" y="1060" type="line"/>
      <point x="376" y="486" type="line"/>
      <point x="224" y="486" type="line" smooth="yes"/>
      <point x="160.614" y="486"/>
      <point x="112" y="538.104"/>
      <point x="112" y="603" type="qcurve" smooth="yes"/>
      <point x="112" y="1060" type="line"/>
      <point x="75" y="1060" type="line"/>
      <point x="75" y="606" type="line" smooth="yes"/>
      <point x="75" y="523.5"/>
      <point x="145.25" y="452"/>
      <point x="224" y="452" type="qcurve" smooth="yes"/>
      <point x="376" y="452" type="line"/>
      <point x="376" y="33" type="line"/>
      <point x="336" y="33" type="line"/>
    </contour>
  </outline>
</glyph>
<glyph name="uni04E9.sc" format="2">
  <advance width="511"/>
  <outline>
    <contour>
      <point x="223" y="-3" type="qcurve" smooth="yes"/>
      <point x="287" y="-3" type="line" smooth="yes"/>
      <point x="362.46" y="-3"/>
      <point x="430" y="66.994"/>
      <point x="430" y="150" type="qcurve" smooth="yes"/>
      <point x="430" y="910" type="line" smooth="yes"/>
      <point x="430" y="992.5"/>
      <point x="361.25" y="1063"/>
      <point x="287" y="1063" type="qcurve" smooth="yes"/>
      <point x="223" y="1063" type="line" smooth="yes"/>
      <point x="148.295" y="1063"/>
      <point x="81" y="993.006"/>
      <point x="81" y="910" type="qcurve" smooth="yes"/>
      <point x="81" y="150" type="line" smooth="yes"/>
      <point x="81" y="66.994"/>
      <point x="148.295" y="-3"/>
    </contour>
    <contour>
      <point x="118" y="545" type="line"/>
      <point x="118" y="912" type="line" smooth="yes"/>
      <point x="118" y="977.65"/>
      <point x="162.896" y="1030"/>
      <point x="221" y="1030" type="qcurve" smooth="yes"/>
      <point x="289" y="1030" type="line" smooth="yes"/>
      <point x="347.859" y="1030"/>
      <point x="393" y="977.65"/>
      <point x="393" y="912" type="qcurve" smooth="yes"/>
      <point x="393" y="545" type="line"/>
    </contour>
    <contour>
      <point x="118" y="515" type="line"/>
      <point x="393" y="515" type="line"/>
      <point x="393" y="148" type="line" smooth="yes"/>
      <point x="393" y="82.3498"/>
      <point x="347.859" y="30"/>
      <point x="289" y="30" type="qcurve" smooth="yes"/>
      <point x="221" y="30" type="line" smooth="yes"/>
      <point x="162.896" y="30"/>
      <point x="118" y="82.3498"/>
      <point x="118" y="148" type="qcurve" smooth="yes"/>
    </contour>
  </outline>
</glyph>
<glyph name="uni1E45.sc" format="2">
  <advance width="559"/>
  <anchor x="280" y="1210" name="top"/>
  <anchor x="280" y="-150" name="bottom"/>
  <outline>
    <contour>
      <point x="95" y="0" type="line"/>
      <point x="128" y="0" type="line"/>
      <point x="128" y="938" type="line"/>
      <point x="432" y="0" type="line"/>
      <point x="464" y="0" type="line"/>
      <point x="464" y="1060" type="line"/>
      <point x="431" y="1060" type="line"/>
      <point x="431" y="122" type="line"/>
      <point x="127" y="1060" type="line"/>
      <point x="95" y="1060" type="line"/>
    </contour>
    <contour>
      <point x="264" y="1210" type="qcurve" smooth="yes"/>
      <point x="296" y="1210" type="line" smooth="yes"/>
      <point x="314.11" y="1210"/>
      <point x="320" y="1215.89"/>
      <point x="320" y="1234" type="qcurve" smooth="yes"/>
      <point x="320" y="1266" type="line" smooth="yes"/>
      <point x="320" y="1284.11"/>
      <point x="314.11" y="1290"/>
      <point x="296" y="1290" type="qcurve" smooth="yes"/>
      <point x="264" y="1290" type="line" smooth="yes"/>
      <point x="245.89" y="1290"/>
      <point x="240" y="1284.11"/>
      <point x="240" y="1266" type="qcurve" smooth="yes"/>
      <point x="240" y="1234" type="line" smooth="yes"/>
      <point x="240" y="1215.89"/>
      <point x="245.89" y="1210"/>
    </contour>
  </outline>
  <guideline angle="0" x="0" y="1384"/>
</glyph>
<glyph name="uni1EAF.sc" format="2">
  <advance width="423"/>
  <anchor x="211" y="1210" name="top"/>
  <anchor x="211" y="-150" name="bottom"/>
  <anchor x="421" y="0" name="ogonek"/>
  <outline>
    <contour>
      <point x="0" y="0" type="line"/>
      <point x="36" y="0" type="line"/>
      <point x="209" y="981" type="line"/>
      <point x="385" y="0" type="line"/>
      <point x="423" y="0" type="line"/>
      <point x="230" y="1060" type="line"/>
      <point x="191" y="1060" type="line"/>
    </contour>
    <contour>
      <point x="52" y="244" type="line"/>
      <point x="374" y="244" type="line"/>
      <point x="365" y="277" type="line"/>
      <point x="59" y="277" type="line"/>
    </contour>
    <contour>
      <point x="211" y="1177" type="qcurve" smooth="yes"/>
      <point x="242.125" y="1177"/>
      <point x="284.281" y="1192.75"/>
      <point x="309.969" y="1239.25"/>
      <point x="321" y="1324"/>
      <point x="321" y="1393" type="qcurve"/>
      <point x="291" y="1393" type="line"/>
      <point x="291" y="1330"/>
      <point x="283.156" y="1256.75"/>
      <point x="264.594" y="1219.25"/>
      <point x="233.875" y="1209"/>
      <point x="211" y="1209" type="qcurve" smooth="yes"/>
      <point x="188.125" y="1209"/>
      <point x="157.406" y="1219.25"/>
      <point x="138.844" y="1256.75"/>
      <point x="131" y="1330"/>
      <point x="131" y="1393" type="qcurve"/>
      <point x="101" y="1393" type="line"/>
      <point x="101" y="1324"/>
      <point x="112.031" y="1239.25"/>
      <point x="137.719" y="1192.75"/>
      <point x="179.875" y="1177"/>
    </contour>
    <contour>
      <point x="165" y="1457" type="line"/>
      <point x="194" y="1457" type="line"/>
      <point x="280" y="1714" type="line"/>
      <point x="246" y="1714" type="line"/>
    </contour>
  </outline>
</glyph>
<glyph name="uni1EBF.sc" format="2">
  <advance width="427"/>
  <anchor x="259" y="1210" name="top"/>
  <anchor x="259" y="-150" name="bottom"/>
  <anchor x="422" y="0" name="ogonek"/>
  <outline>
    <contour>
      <point x="95" y="0" type="line"/>
      <point x="422" y="0" type="line"/>
      <point x="422" y="33" type="line"/>
      <point x="132" y="33" type="line"/>
      <point x="132" y="527" type="line"/>
      <point x="390" y="527" type="line"/>
      <point x="390" y="560" type="line"/>
      <point x="132" y="560" type="line"/>
      <point x="132" y="1027" type="line"/>
      <point x="411" y="1027" type="line"/>
      <point x="411" y="1060" type="line"/>
      <point x="95" y="1060" type="line"/>
    </contour>
    <contour>
      <point x="154" y="1155" type="line"/>
      <point x="186" y="1155" type="line"/>
      <point x="253" y="1395" type="line"/>
      <point x="319" y="1155" type="line"/>
      <point x="352" y="1155" type="line"/>
      <point x="273" y="1450" type="line"/>
      <point x="234" y="1450" type="line"/>
    </contour>
    <contour>
      <point x="362" y="1303" type="line"/>
      <point x="391" y="1303" type="line"/>
      <point x="446" y="1598" type="line"/>
      <point x="412" y="1598" type="line"/>
    </contour>
  </outline>
  <guideline angle="90" color="1,0,0,1" x="422" y="0"/>
</glyph>
<glyph name="uni20B5.alt" format="2">
  <advance width="566"/>
  <outline>
    <contour>
      <point x="81" y="232" type="line" smooth="yes"/>
      <point x="81" y="124.847"/>
      <point x="173.111" y="32"/>
      <point x="278" y="32" type="qcurve" smooth="yes"/>
      <point x="279" y="32" type="line"/>
      <point x="279" y="-150" type="line"/>
      <point x="315" y="-150" type="line"/>
      <point x="315" y="32" type="line"/>
      <point x="316" y="32" type="line" smooth="yes"/>
      <point x="420.889" y="32"/>
      <point x="513" y="124.847"/>
      <point x="513" y="232" type="qcurve" smooth="yes"/>
      <point x="513" y="512" type="line"/>
      <point x="473" y="520" type="line"/>
      <point x="473" y="230" type="line" smooth="yes"/>
      <point x="473" y="140.203"/>
      <point x="402.307" y="68"/>
      <point x="311" y="68" type="qcurve" smooth="yes"/>
      <point x="283" y="68" type="line" smooth="yes"/>
      <point x="191.693" y="68"/>
      <point x="121" y="140.203"/>
      <point x="121" y="230" type="qcurve" smooth="yes"/>
      <point x="121" y="1170" type="line" smooth="yes"/>
      <point x="121" y="1259.8"/>
      <point x="191.693" y="1332"/>
      <point x="283" y="1332" type="qcurve" smooth="yes"/>
      <point x="311" y="1332" type="line" smooth="yes"/>
      <point x="402.307" y="1332"/>
      <point x="473" y="1259.8"/>
      <point x="473" y="1170" type="qcurve" smooth="yes"/>
      <point x="473" y="906" type="line"/>
      <point x="513" y="914" type="line"/>
      <point x="513" y="1168" type="line" smooth="yes"/>
      <point x="513" y="1274.5"/>
      <point x="420.25" y="1368"/>
      <point x="316" y="1368" type="qcurve" smooth="yes"/>
      <point x="315" y="1368" type="line"/>
      <point x="315" y="1550" type="line"/>
      <point x="279" y="1550" type="line"/>
      <point x="279" y="1368" type="line"/>
      <point x="278" y="1368" type="line" smooth="yes"/>
      <point x="173.75" y="1368"/>
      <point x="81" y="1274.5"/>
      <point x="81" y="1168" type="qcurve" smooth="yes"/>
    </contour>
  </outline>
</glyph>
<glyph name="x.sc" format="2">
  <advance width="370"/>
  <outline>
    <contour>
      <point x="0" y="0" type="line"/>
      <point x="35" y="0" type="line"/>
      <point x="184" y="487" type="line"/>
      <point x="332" y="0" type="line"/>
      <point x="370" y="0" type="line"/>
      <point x="205" y="541" type="line"/>
      <point x="368" y="1060" type="line"/>
      <point x="333" y="1060" type="line"/>
      <point x="186" y="592" type="line"/>
      <point x="39" y="1060" type="line"/>
      <point x="0" y="1060" type="line"/>
      <point x="165" y="540" type="line"/>
    </contour>
  </outline>
</glyph>
<glyph name="yacute.sc" format="2">
  <advance width="417"/>
  <anchor x="211" y="1210" name="top"/>
  <anchor x="209" y="-150" name="bottom"/>
  <outline>
    <contour>
      <point x="190" y="0" type="line"/>
      <point x="227" y="0" type="line"/>
      <point x="227" y="471" type="line"/>
      <point x="417" y="1060" type="line"/>
      <point x="382" y="1060" type="line"/>
      <point x="211" y="529" type="line"/>
      <point x="39" y="1060" type="line"/>
      <point x="0" y="1060" type="line"/>
      <point x="190" y="474" type="line"/>
    </contour>
    <contour>
      <point x="132" y="1145" type="line"/>
      <point x="167" y="1145" type="line"/>
      <point x="383" y="1460" type="line"/>
      <point x="342" y="1460" type="line"/>
    </contour>
  </outline>
  <guideline angle="90" color="1,0,0,1" x="269" y="0"/>
  <guideline angle="90" color="1,0,0,1" x="208.5" y="0"/>
</glyph>
<glyph name="zero.sups" format="2">
  <advance width="399"/>
  <outline>
    <contour>
      <point x="194" y="950" type="qcurve" smooth="yes"/>
      <point x="206" y="950" type="line" smooth="yes"/>
      <point x="268.632" y="950"/>
      <point x="323" y="1002.86"/>
      <point x="323" y="1067" type="qcurve" smooth="yes"/>
      <point x="323" y="1624" type="line" smooth="yes"/>
      <point x="323" y="1687.39"/>
      <point x="267.877" y="1740"/>
      <point x="206" y="1740" type="qcurve" smooth="yes"/>
      <point x="194" y="1740" type="line" smooth="yes"/>
      <point x="133.632" y="1740"/>
      <point x="76" y="1687.39"/>
      <point x="76" y="1624" type="qcurve" smooth="yes"/>
      <point x="76" y="1067" type="line" smooth="yes"/>
      <point x="76" y="1002.86"/>
      <point x="132.877" y="950"/>
    </contour>
    <contour>
      <point x="191" y="980" type="line" smooth="yes"/>
      <point x="146.479" y="980"/>
      <point x="110" y="1016.48"/>
      <point x="110" y="1061" type="qcurve" smooth="yes"/>
      <point x="110" y="1629" type="line" smooth="yes"/>
      <point x="110" y="1673.52"/>
      <point x="146.479" y="1710"/>
      <point x="191" y="1710" type="qcurve" smooth="yes"/>
      <point x="209" y="1710" type="line" smooth="yes"/>
      <point x="255.031" y="1710"/>
      <point x="289" y="1673.52"/>
      <point x="289" y="1629" type="qcurve" smooth="yes"/>
      <point x="289" y="1061" type="line" smooth="yes"/>
      <point x="289" y="1016.48"/>
      <point x="255.031" y="980"/>
      <point x="209" y="980" type="qcurve" smooth="yes"/>
    </contour>
  </outline>
</glyph>
